<?xml version="1.0" encoding="UTF-8" standalone="no"?>
<!-- Created with Inkscape (http://www.inkscape.org/) -->

<svg
   width="32px"
   height="32px"
   viewBox="0 0 210 210"
   version="1.1"
   id="svg5"
   inkscape:version="1.4.2 (f4327f4, 2025-05-13)"
   sodipodi:docname="favicon.svg"
   xmlns:inkscape="http://www.inkscape.org/namespaces/inkscape"
   xmlns:sodipodi="http://sodipodi.sourceforge.net/DTD/sodipodi-0.dtd"
   xmlns="http://www.w3.org/2000/svg"
   xmlns:svg="http://www.w3.org/2000/svg">
  <sodipodi:namedview
     id="namedview7"
     pagecolor="#ffffff"
     bordercolor="#666666"
     borderopacity="1.0"
     inkscape:pageshadow="2"
     inkscape:pageopacity="0.0"
     inkscape:pagecheckerboard="0"
     inkscape:document-units="mm"
     showgrid="false"
     inkscape:zoom="16.326114"
     inkscape:cx="25.358148"
     inkscape:cy="9.8921277"
     inkscape:window-width="1920"
     inkscape:window-height="1129"
     inkscape:window-x="1912"
     inkscape:window-y="-8"
     inkscape:window-maximized="1"
     inkscape:current-layer="g118371"
     inkscape:showpageshadow="2"
     inkscape:deskcolor="#d1d1d1" />
  <defs
     id="defs2">
    <rect
       x="107.99933"
       y="351.86878"
       width="989.97316"
       height="229.79765"
       id="rect333037" />
    <rect
       x="116.70895"
       y="378.86861"
       width="595.73822"
       height="101.03163"
       id="rect331315" />
    <rect
       x="116.70895"
       y="378.86861"
       width="595.73822"
       height="101.03163"
       id="rect3662" />
    <rect
       x="107.99933"
       y="351.86878"
       width="989.97316"
       height="229.79765"
       id="rect3664" />
  </defs>
  <g
     inkscape:label="grün"
     inkscape:groupmode="layer"
     id="g118371"
     style="display:inline">
    <g
       id="g329243"
       transform="matrix(2.6561734,0,0,2.6561734,-133.61447,-42.59878)">
      <circle
         style="display:inline;fill:#5fd35f;fill-opacity:1;fill-rule:evenodd;stroke-width:0.300124"
         id="circle118365"
         cx="88.59111"
         cy="60.392914"
         r="30.001532"
         transform="rotate(-2.2331635)" />
      <path
         style="display:inline;fill:#dbffb9;fill-opacity:1;stroke:none;stroke-width:0.264583px;stroke-linecap:butt;stroke-linejoin:miter;stroke-opacity:1"
         d="m 72.010718,47.217207 c 0,0 -13.251516,8.000026 1.173606,22.179153 1.451986,1.427226 10.735154,-0.04597 10.735154,-0.04597 0,0 11.367086,0.677012 21.641072,0.390676 1.33504,-0.03729 12.19036,-6.257651 4.13809,-22.68573 -0.28553,-0.582537 -0.23048,-1.28641 -0.94831,-1.333785 l -1.25425,-0.08277 -26.978003,-0.953313 -6.733213,0.750647"
         id="path118367"
         sodipodi:nodetypes="cscsssccc" />
      <path
         style="display:inline;fill:#1b4b2e;fill-opacity:1;stroke-width:0.11702"
         d="M 86.669858,88.97357 C 83.672604,88.604341 82.099595,88.249825 79.301837,87.313042 74.033225,85.54892 68.923877,82.157586 65.109274,77.892728 l -0.869949,-1.063189 -0.61618,0.534235 c -0.342432,0.296889 -1.105754,0.923279 -1.608589,1.363317 l -0.88964,0.778517 1.159795,1.167503 c 1.128024,1.135538 1.233033,1.29747 1.232027,1.692519 -0.0015,0.563185 -0.158486,0.840854 -0.605514,1.070578 -0.663441,0.34089 -1.142326,0.355752 -2.410832,-0.969065 -1.786865,-1.86617 -3.383318,-3.853302 -4.496354,-5.715946 -0.680716,-1.13919 -0.56523,-1.791325 0.03429,-2.185645 0.704646,-0.463471 1.343895,-0.201871 2.072574,0.815569 0.230005,0.364424 0.68207,1.022468 1.004585,1.462345 l 0.43864,0.59608 0.866339,-0.637711 c 0.403094,-0.296723 0.970061,-0.774388 1.467696,-1.198181 L 62.8068,74.821324 62.190879,73.896072 C 60.962568,72.050802 59.63922,69.282165 58.92504,67.063399 l -0.329841,-1.024765 -1.297012,-0.0033 c -1.945009,-0.0049 -3.173893,-0.405278 -4.530976,-1.475991 -0.824184,-0.650278 -1.756354,-2.046666 -2.0979,-3.142659 -0.253306,-0.812837 -0.261486,-0.991554 -0.25005,-5.462595 0.01057,-4.154518 0.03372,-4.693258 0.228715,-5.323825 0.486019,-1.571632 1.399305,-2.78363 2.75343,-3.653957 1.025262,-0.65898 2.107035,-0.95843 3.786068,-1.048034 l 1.415948,-0.07563 0.382381,-1.052198 c 0.833798,-2.294413 2.179291,-4.883298 3.667382,-7.056423 L 63.403556,36.6482 63.087541,36.223872 c -0.513294,-0.689173 -2.66446,-3.210124 -3.055683,-3.580872 -0.429924,-0.407457 -0.628322,-0.946055 -0.508482,-1.380064 0.361382,-1.308375 4.370878,-5.342604 6.920768,-6.963435 0.338406,-0.214799 0.615149,-0.429786 0.615236,-0.477355 1.97e-4,-0.04745 -0.486503,-0.23287 -1.081382,-0.411916 -1.305928,-0.393061 -1.794083,-0.80172 -1.672778,-1.400372 0.04071,-0.200668 0.17982,-0.470073 0.309226,-0.598683 0.319673,-0.317708 0.837164,-0.284408 3.562179,0.229269 3.368229,0.634915 3.868834,0.766438 4.205704,1.105029 0.534332,0.537067 0.42762,0.854226 -0.917612,2.726847 -0.666456,0.927744 -1.539252,2.167705 -1.939533,2.755489 -0.40031,0.587794 -0.688343,0.766274 -0.789312,0.804737 -0.481825,0.189669 -0.872926,-0.101983 -1.097765,-0.290295 -0.279141,-0.23379 -0.334597,-0.777943 -0.232189,-1.097956 0.0703,-0.219536 0.274134,-0.790272 0.805311,-1.597053 0.156618,-0.237903 0.06288,-0.201873 -0.548017,0.210685 -1.594376,1.076704 -4.217868,3.498311 -5.230389,4.827864 -0.327188,0.429636 -0.328661,0.43883 -0.115585,0.716599 0.23373,0.304703 2.498664,2.890612 2.531882,2.890697 0.01083,3.59e-4 0.759308,-0.722135 1.662609,-1.604804 1.845957,-1.80375 2.960665,-2.726327 4.681413,-3.87447 2.583668,-1.723924 4.922455,-2.921597 7.289899,-3.733174 7.091926,-2.431082 14.294209,-2.544934 21.537719,-0.340462 2.73458,0.832226 4.7444,1.777309 8.10242,3.810004 1.73063,1.047589 1.80237,1.078917 1.97806,0.863688 0.87074,-1.06658 2.20239,-2.601485 2.34822,-2.65702 0.33986,-0.129421 0.70557,-0.152508 0.93084,0.112836 0.3083,0.363132 0.4363,1.177022 0.63313,2.178202 0.14278,0.726209 0.41104,2.284569 0.65366,3.552188 l 0.42695,2.230537 1.09752,1.465547 c 1.86883,2.495504 3.46537,5.408866 4.47032,8.157114 l 0.43299,1.184167 1.41889,0.07292 c 2.24462,0.115284 3.42089,0.553832 4.69252,1.749449 0.89224,0.838909 1.37675,1.572137 1.78753,2.704982 0.43478,2.303587 0.26056,1.854197 0.2967,5.473034 -0.0113,4.442116 -0.022,4.654161 -0.27224,5.440731 -0.65264,2.050758 -2.09196,3.571027 -4.10815,4.339164 -0.66387,0.25293 -1.04582,0.311338 -2.32789,0.355899 l -1.53372,0.05278 -0.26677,0.8616 c -0.34829,1.124906 -1.5634,3.815747 -2.29021,5.071562 -1.99371,3.444935 -5.03784,7.084116 -7.98962,9.551499 -1.99864,1.670649 -5.53161,3.805626 -8.02822,4.851464 -2.17214,0.909941 -5.410818,1.784734 -8.197043,2.214089 -1.180827,0.181971 -6.590066,0.321535 -7.606809,0.196311 z m 7.539,-4.642122 c 4.340757,-0.623597 8.330162,-2.460483 12.016752,-4.886259 6.18479,-4.069628 10.20448,-10.566844 11.58251,-17.955152 1.05381,-5.650164 0.66201,-11.120141 -1.57238,-16.198703 -0.96245,-2.187628 -3.10433,-5.95744 -4.29814,-7.291095 l -3.88099,-0.202506 v 0 c 0,0 -2.81754,-0.317282 -3.07037,-0.556012 -0.19122,-0.180636 -0.27971,-0.393169 -0.27896,-0.670789 8.5e-4,-0.33741 0.15427,-0.584655 0.90381,-1.456555 l 0.90281,-1.050156 0.5717,-0.739809 c 0.46646,-0.603614 -3.3454,-2.238052 -4.48825,-2.774016 -5.941063,-2.786166 -13.402527,-3.833417 -19.820837,-2.18854 -3.662704,0.938674 -7.523207,2.858011 -10.847642,5.466693 -5.140816,4.033972 -9.241951,11.081359 -10.341086,17.908283 -0.26747,1.661265 -0.324727,6.022668 -0.157045,7.723735 0.452665,4.591959 2.689587,9.509129 5.086443,13.090332 4.645874,6.94154 12.603984,11.130205 20.957771,11.959449 1.45447,0.144375 5.272742,0.031 6.733902,-0.178931 z M 73.754789,70.405179 c -1.437531,-0.380565 -2.637783,-1.090705 -3.765818,-2.228053 -5.237669,-5.263055 -4.888184,-17.745153 -0.007,-22.543729 0.911351,-0.907471 1.233049,-1.143216 2.178566,-1.596443 1.967613,-0.943166 1.006552,-0.897253 17.868316,-0.853408 14.569027,0.03793 15.841717,0.209057 16.796067,0.440276 0.74407,0.311703 1.46965,0.631122 2.04054,1.126954 7.28572,4.450702 6.19341,18.957153 1.25047,23.468716 -0.77417,0.706604 -1.60414,1.346531 -2.87544,1.739166 -3.80849,1.176257 -10.40496,0.446882 -17.481341,0.714625 -14.51837,-0.04098 -15.189618,-0.05248 -16.004179,-0.268092 z m 31.481091,-2.387372 c 1.47917,-0.303608 2.28114,-1.051756 3.75353,-2.740062 3.24693,-3.723068 3.53627,-13.607979 -1.19496,-17.932746 -0.55144,-0.504065 -1.73485,-1.115217 -2.50226,-1.418524 -0.83423,-0.329713 -29.715613,-0.259573 -30.589005,-0.07707 -0.976364,0.203961 -1.968724,0.708102 -2.692467,1.367804 -4.585413,5.394904 -3.423445,13.781046 -1.26442,17.89423 0.646835,1.284561 1.998488,2.35976 3.446763,2.741756 0.707257,0.186552 1.971078,0.206601 15.596029,0.2475 10.36819,0.0314 15.01297,0.0062 15.44684,-0.08284 z m -16.727244,-2.1958 c -1.386745,-0.391152 -2.650248,-1.221178 -2.943132,-1.933387 -0.185763,-0.451724 0.0033,-0.968232 0.423984,-1.15864 0.425609,-0.192591 0.515082,-0.171402 1.181872,0.2801 1.698291,1.150007 3.394281,1.277328 4.843237,0.363613 1.241242,-0.782751 1.369437,-0.830032 1.721896,-0.631105 0.461665,0.260329 0.661682,0.743441 0.484066,1.169166 -0.213335,0.511391 -1.093194,1.25434 -1.970141,1.663652 -0.68972,0.321881 -0.921469,0.368546 -1.952862,0.393174 -0.764287,0.01831 -1.384894,-0.03266 -1.78892,-0.146573 z M 74.227333,61.658723 c -0.445327,-0.246845 -0.826002,-0.859057 -0.824649,-1.326594 0.0011,-0.443072 0.449679,-1.035049 1.05673,-1.394606 0.289862,-0.172136 2.069782,-1.14302 3.954916,-2.158218 1.885152,-1.015218 3.426362,-1.874686 3.424918,-1.909936 -0.0013,-0.03538 -1.712999,-0.778572 -3.803434,-1.651839 -2.625918,-1.096941 -3.894766,-1.686287 -4.104709,-1.906554 -0.217161,-0.22779 -0.319311,-0.483714 -0.35791,-0.896383 -0.04945,-0.528825 -0.02096,-0.61374 0.34108,-1.006485 0.751721,-0.816083 0.629123,-0.847509 6.826431,1.750409 5.626246,2.358537 5.917693,2.511627 6.088027,3.197711 0.112552,0.453268 -0.05185,1.051949 -0.377993,1.376424 -0.16445,0.163633 -1.494862,0.937852 -2.956293,1.720783 -1.461519,0.782774 -3.861518,2.075785 -5.333349,2.873312 -1.576137,0.854065 -2.852315,1.471312 -3.104858,1.501795 -0.283631,0.03428 -0.564199,-0.02334 -0.828751,-0.169916 z m 25.916257,-2.107648 c -1.275547,-0.426672 -2.231793,-1.240969 -2.812678,-2.39513 -0.31042,-0.616813 -0.338782,-0.77747 -0.335914,-1.902396 0.0028,-1.104057 0.03596,-1.295215 0.327155,-1.884319 0.359018,-0.726351 1.321963,-1.703536 2.031879,-2.061891 0.665378,-0.335852 1.756398,-0.528661 2.525618,-0.446282 1.47872,0.15837 2.93475,1.211153 3.56012,2.57415 0.29782,0.649128 0.33416,0.85723 0.33148,1.899186 -0.003,1.045378 -0.0383,1.241463 -0.33314,1.838337 -0.74862,1.515042 -2.18918,2.44269 -3.88531,2.501876 -0.56473,0.02001 -1.1287,-0.02974 -1.40922,-0.123551 z"
         id="path118369"
         sodipodi:nodetypes="csscsscsssssscscsscsscssssssscsscssscsssssssscssscsscsscssssssscsscsscccsscssssscccsssccsssscsssssssscccccssccssccccssssccccccsssscscscsccscssssssssscsscsssssssccccs" />
    </g>
  </g>
  <g
     inkscape:label="grün Kopie"
     inkscape:groupmode="layer"
     id="g3660"
     style="display:none">
    <g
       id="g3652"
       transform="translate(17.815301,-1.1522106)">
      <circle
         style="display:inline;fill:#5fd35f;fill-opacity:1;fill-rule:evenodd;stroke-width:0.300124"
         id="circle3646"
         cx="88.59111"
         cy="60.392914"
         r="30.001532"
         transform="rotate(-2.2331635)" />
      <path
         style="display:inline;fill:#dbffb9;fill-opacity:1;stroke:none;stroke-width:0.264583px;stroke-linecap:butt;stroke-linejoin:miter;stroke-opacity:1"
         d="m 72.010718,47.217207 c 0,0 -13.251516,8.000026 1.173606,22.179153 1.451986,1.427226 10.735154,-0.04597 10.735154,-0.04597 0,0 11.367086,0.677012 21.641072,0.390676 1.33504,-0.03729 12.19036,-6.257651 4.13809,-22.68573 -0.28553,-0.582537 -0.23048,-1.28641 -0.94831,-1.333785 l -1.25425,-0.08277 -26.978003,-0.953313 -6.733213,0.750647"
         id="path3648"
         sodipodi:nodetypes="cscsssccc" />
      <path
         style="display:inline;fill:#1b4b2e;fill-opacity:1;stroke-width:0.11702"
         d="M 86.669858,88.97357 C 83.672604,88.604341 82.099595,88.249825 79.301837,87.313042 74.033225,85.54892 68.923877,82.157586 65.109274,77.892728 l -0.869949,-1.063189 -0.61618,0.534235 c -0.342432,0.296889 -1.105754,0.923279 -1.608589,1.363317 l -0.88964,0.778517 1.159795,1.167503 c 1.128024,1.135538 1.233033,1.29747 1.232027,1.692519 -0.0015,0.563185 -0.158486,0.840854 -0.605514,1.070578 -0.663441,0.34089 -1.142326,0.355752 -2.410832,-0.969065 -1.786865,-1.86617 -3.383318,-3.853302 -4.496354,-5.715946 -0.680716,-1.13919 -0.56523,-1.791325 0.03429,-2.185645 0.704646,-0.463471 1.343895,-0.201871 2.072574,0.815569 0.230005,0.364424 0.68207,1.022468 1.004585,1.462345 l 0.43864,0.59608 0.866339,-0.637711 c 0.403094,-0.296723 0.970061,-0.774388 1.467696,-1.198181 L 62.8068,74.821324 62.190879,73.896072 C 60.962568,72.050802 59.63922,69.282165 58.92504,67.063399 l -0.329841,-1.024765 -1.297012,-0.0033 c -1.945009,-0.0049 -3.173893,-0.405278 -4.530976,-1.475991 -0.824184,-0.650278 -1.756354,-2.046666 -2.0979,-3.142659 -0.253306,-0.812837 -0.261486,-0.991554 -0.25005,-5.462595 0.01057,-4.154518 0.03372,-4.693258 0.228715,-5.323825 0.486019,-1.571632 1.399305,-2.78363 2.75343,-3.653957 1.025262,-0.65898 2.107035,-0.95843 3.786068,-1.048034 l 1.415948,-0.07563 0.382381,-1.052198 c 0.833798,-2.294413 2.179291,-4.883298 3.667382,-7.056423 L 63.403556,36.6482 63.087541,36.223872 c -0.513294,-0.689173 -2.66446,-3.210124 -3.055683,-3.580872 -0.429924,-0.407457 -0.628322,-0.946055 -0.508482,-1.380064 0.361382,-1.308375 4.370878,-5.342604 6.920768,-6.963435 0.338406,-0.214799 0.615149,-0.429786 0.615236,-0.477355 1.97e-4,-0.04745 -0.486503,-0.23287 -1.081382,-0.411916 -1.305928,-0.393061 -1.794083,-0.80172 -1.672778,-1.400372 0.04071,-0.200668 0.17982,-0.470073 0.309226,-0.598683 0.319673,-0.317708 0.837164,-0.284408 3.562179,0.229269 3.368229,0.634915 3.868834,0.766438 4.205704,1.105029 0.534332,0.537067 0.42762,0.854226 -0.917612,2.726847 -0.666456,0.927744 -1.539252,2.167705 -1.939533,2.755489 -0.40031,0.587794 -0.688343,0.766274 -0.789312,0.804737 -0.481825,0.189669 -0.872926,-0.101983 -1.097765,-0.290295 -0.279141,-0.23379 -0.334597,-0.777943 -0.232189,-1.097956 0.0703,-0.219536 0.274134,-0.790272 0.805311,-1.597053 0.156618,-0.237903 0.06288,-0.201873 -0.548017,0.210685 -1.594376,1.076704 -4.217868,3.498311 -5.230389,4.827864 -0.327188,0.429636 -0.328661,0.43883 -0.115585,0.716599 0.23373,0.304703 2.498664,2.890612 2.531882,2.890697 0.01083,3.59e-4 0.759308,-0.722135 1.662609,-1.604804 1.845957,-1.80375 2.960665,-2.726327 4.681413,-3.87447 2.583668,-1.723924 4.922455,-2.921597 7.289899,-3.733174 7.091926,-2.431082 14.294209,-2.544934 21.537719,-0.340462 2.73458,0.832226 4.7444,1.777309 8.10242,3.810004 1.73063,1.047589 1.80237,1.078917 1.97806,0.863688 0.87074,-1.06658 2.20239,-2.601485 2.34822,-2.65702 0.33986,-0.129421 0.70557,-0.152508 0.93084,0.112836 0.3083,0.363132 0.4363,1.177022 0.63313,2.178202 0.14278,0.726209 0.41104,2.284569 0.65366,3.552188 l 0.42695,2.230537 1.09752,1.465547 c 1.86883,2.495504 3.46537,5.408866 4.47032,8.157114 l 0.43299,1.184167 1.41889,0.07292 c 2.24462,0.115284 3.42089,0.553832 4.69252,1.749449 0.89224,0.838909 1.37675,1.572137 1.78753,2.704982 0.43478,2.303587 0.26056,1.854197 0.2967,5.473034 -0.0113,4.442116 -0.022,4.654161 -0.27224,5.440731 -0.65264,2.050758 -2.09196,3.571027 -4.10815,4.339164 -0.66387,0.25293 -1.04582,0.311338 -2.32789,0.355899 l -1.53372,0.05278 -0.26677,0.8616 c -0.34829,1.124906 -1.5634,3.815747 -2.29021,5.071562 -1.99371,3.444935 -5.03784,7.084116 -7.98962,9.551499 -1.99864,1.670649 -5.53161,3.805626 -8.02822,4.851464 -2.17214,0.909941 -5.410818,1.784734 -8.197043,2.214089 -1.180827,0.181971 -6.590066,0.321535 -7.606809,0.196311 z m 7.539,-4.642122 c 4.340757,-0.623597 8.330162,-2.460483 12.016752,-4.886259 6.18479,-4.069628 10.20448,-10.566844 11.58251,-17.955152 1.05381,-5.650164 0.66201,-11.120141 -1.57238,-16.198703 -0.96245,-2.187628 -3.10433,-5.95744 -4.29814,-7.291095 l -3.88099,-0.202506 v 0 c 0,0 -2.81754,-0.317282 -3.07037,-0.556012 -0.19122,-0.180636 -0.27971,-0.393169 -0.27896,-0.670789 8.5e-4,-0.33741 0.15427,-0.584655 0.90381,-1.456555 l 0.90281,-1.050156 0.5717,-0.739809 c 0.46646,-0.603614 -3.3454,-2.238052 -4.48825,-2.774016 -5.941063,-2.786166 -13.402527,-3.833417 -19.820837,-2.18854 -3.662704,0.938674 -7.523207,2.858011 -10.847642,5.466693 -5.140816,4.033972 -9.241951,11.081359 -10.341086,17.908283 -0.26747,1.661265 -0.324727,6.022668 -0.157045,7.723735 0.452665,4.591959 2.689587,9.509129 5.086443,13.090332 4.645874,6.94154 12.603984,11.130205 20.957771,11.959449 1.45447,0.144375 5.272742,0.031 6.733902,-0.178931 z M 73.754789,70.405179 c -1.437531,-0.380565 -2.637783,-1.090705 -3.765818,-2.228053 -5.237669,-5.263055 -4.888184,-17.745153 -0.007,-22.543729 0.911351,-0.907471 1.233049,-1.143216 2.178566,-1.596443 1.967613,-0.943166 1.006552,-0.897253 17.868316,-0.853408 14.569027,0.03793 15.841717,0.209057 16.796067,0.440276 0.74407,0.311703 1.46965,0.631122 2.04054,1.126954 7.28572,4.450702 6.19341,18.957153 1.25047,23.468716 -0.77417,0.706604 -1.60414,1.346531 -2.87544,1.739166 -3.80849,1.176257 -10.40496,0.446882 -17.481341,0.714625 -14.51837,-0.04098 -15.189618,-0.05248 -16.004179,-0.268092 z m 31.481091,-2.387372 c 1.47917,-0.303608 2.28114,-1.051756 3.75353,-2.740062 3.24693,-3.723068 3.53627,-13.607979 -1.19496,-17.932746 -0.55144,-0.504065 -1.73485,-1.115217 -2.50226,-1.418524 -0.83423,-0.329713 -29.715613,-0.259573 -30.589005,-0.07707 -0.976364,0.203961 -1.968724,0.708102 -2.692467,1.367804 -4.585413,5.394904 -3.423445,13.781046 -1.26442,17.89423 0.646835,1.284561 1.998488,2.35976 3.446763,2.741756 0.707257,0.186552 1.971078,0.206601 15.596029,0.2475 10.36819,0.0314 15.01297,0.0062 15.44684,-0.08284 z m -16.727244,-2.1958 c -1.386745,-0.391152 -2.650248,-1.221178 -2.943132,-1.933387 -0.185763,-0.451724 0.0033,-0.968232 0.423984,-1.15864 0.425609,-0.192591 0.515082,-0.171402 1.181872,0.2801 1.698291,1.150007 3.394281,1.277328 4.843237,0.363613 1.241242,-0.782751 1.369437,-0.830032 1.721896,-0.631105 0.461665,0.260329 0.661682,0.743441 0.484066,1.169166 -0.213335,0.511391 -1.093194,1.25434 -1.970141,1.663652 -0.68972,0.321881 -0.921469,0.368546 -1.952862,0.393174 -0.764287,0.01831 -1.384894,-0.03266 -1.78892,-0.146573 z M 74.227333,61.658723 c -0.445327,-0.246845 -0.826002,-0.859057 -0.824649,-1.326594 0.0011,-0.443072 0.449679,-1.035049 1.05673,-1.394606 0.289862,-0.172136 2.069782,-1.14302 3.954916,-2.158218 1.885152,-1.015218 3.426362,-1.874686 3.424918,-1.909936 -0.0013,-0.03538 -1.712999,-0.778572 -3.803434,-1.651839 -2.625918,-1.096941 -3.894766,-1.686287 -4.104709,-1.906554 -0.217161,-0.22779 -0.319311,-0.483714 -0.35791,-0.896383 -0.04945,-0.528825 -0.02096,-0.61374 0.34108,-1.006485 0.751721,-0.816083 0.629123,-0.847509 6.826431,1.750409 5.626246,2.358537 5.917693,2.511627 6.088027,3.197711 0.112552,0.453268 -0.05185,1.051949 -0.377993,1.376424 -0.16445,0.163633 -1.494862,0.937852 -2.956293,1.720783 -1.461519,0.782774 -3.861518,2.075785 -5.333349,2.873312 -1.576137,0.854065 -2.852315,1.471312 -3.104858,1.501795 -0.283631,0.03428 -0.564199,-0.02334 -0.828751,-0.169916 z m 25.916257,-2.107648 c -1.275547,-0.426672 -2.231793,-1.240969 -2.812678,-2.39513 -0.31042,-0.616813 -0.338782,-0.77747 -0.335914,-1.902396 0.0028,-1.104057 0.03596,-1.295215 0.327155,-1.884319 0.359018,-0.726351 1.321963,-1.703536 2.031879,-2.061891 0.665378,-0.335852 1.756398,-0.528661 2.525618,-0.446282 1.47872,0.15837 2.93475,1.211153 3.56012,2.57415 0.29782,0.649128 0.33416,0.85723 0.33148,1.899186 -0.003,1.045378 -0.0383,1.241463 -0.33314,1.838337 -0.74862,1.515042 -2.18918,2.44269 -3.88531,2.501876 -0.56473,0.02001 -1.1287,-0.02974 -1.40922,-0.123551 z"
         id="path3650"
         sodipodi:nodetypes="csscsscsssssscscsscsscssssssscsscssscsssssssscssscsscsscssssssscsscsscccsscssssscccsssccsssscsssssssscccccssccssccccssssccccccsssscscscsccscssssssssscsscsssssssccccs" />
    </g>
    <text
       xml:space="preserve"
       transform="scale(0.26458333)"
       id="text3654"
       style="font-style:normal;font-weight:normal;font-size:40px;line-height:1.25;font-family:sans-serif;white-space:pre;shape-inside:url(#rect3662);fill:#000000;fill-opacity:1;stroke:none" />
    <text
       xml:space="preserve"
       transform="matrix(0.26458333,0,0,0.26458333,-12.17734,-6.9038501)"
       id="text3658"
       style="font-style:normal;font-variant:normal;font-weight:normal;font-stretch:normal;font-size:114.667px;line-height:1.25;font-family:'Microsoft New Tai Lue';-inkscape-font-specification:'Microsoft New Tai Lue';white-space:pre;shape-inside:url(#rect3664);fill:#1b4b2e;fill-opacity:1;stroke:none"><tspan
         x="108"
         y="456.48332"
         id="tspan2"><tspan
           style="font-weight:500;font-family:Roboto;-inkscape-font-specification:'Roboto Medium'"
           id="tspan1">BioComplete</tspan></tspan></text>
  </g>
  <g
     inkscape:groupmode="layer"
     id="layer1"
     inkscape:label="other logos">
    <g
       inkscape:label="blau"
       inkscape:groupmode="layer"
       id="g26760"
       style="display:none">
      <circle
         style="display:inline;fill:#87aade;fill-opacity:1;fill-rule:evenodd;stroke-width:0.300124"
         id="circle26754"
         cx="50.763165"
         cy="118.84819"
         r="30.001532" />
      <path
         style="display:inline;fill:#f2eca3;fill-opacity:1;stroke:none;stroke-width:0.264583px;stroke-linecap:butt;stroke-linejoin:miter;stroke-opacity:1"
         d="m 31.965757,108.3485 c 0,0 -11.64081,8.70525 2.22085,23.4357 1.39527,1.48272 8.81642,-0.85529 8.81642,-0.85529 0,0 11.5354,1.81921 21.81274,1.93343 1.33548,0.0148 13.36028,-7.58635 5.95426,-24.31572 -0.26261,-0.59322 -1.31884,-0.18573 -2.03428,-0.26104 l -1.25007,-0.13158 -26.92037,-2.00382 -6.75735,0.48771"
         id="path26756"
         sodipodi:nodetypes="cscsssccc" />
      <path
         style="display:inline;fill:#020958;fill-opacity:1;stroke-width:0.11702"
         d="m 46.170947,151.2365 c -2.98059,-0.48574 -4.53859,-0.90128 -7.29772,-1.94637 -5.19587,-1.96808 -10.16919,-5.55594 -13.81471,-9.9662 l -0.82786,-1.09628 -0.63653,0.50982 c -0.35374,0.28332 -1.14089,0.87949 -1.66049,1.2996 l -0.9193,0.74326 1.11342,1.21181 c 1.08292,1.17863 1.18154,1.34453 1.16514,1.73924 -0.0234,0.5627 -0.19113,0.83404 -0.64677,1.04617 -0.67622,0.31478 -1.15532,0.31097 -2.37124,-1.06227 -1.71279,-1.93438 -3.2306,-3.98221 -4.27021,-5.88681 -0.63581,-1.16485 -0.495,-1.81199 0.11942,-2.18265 0.72217,-0.43566 1.35074,-0.14935 2.03922,0.89571 0.21563,0.37311 0.64171,1.04827 0.94684,1.50038 l 0.41508,0.61272 0.89053,-0.60347 c 0.41435,-0.28079 0.9995,-0.736 1.51327,-1.14008 l 0.94843,-0.74594 -0.5794,-0.94855 c -1.15547,-1.89173 -2.36993,-4.70983 -2.99711,-6.95474 l -0.28966,-1.03684 -1.2959,-0.0538 c -1.94334,-0.0807 -3.15569,-0.52864 -4.47002,-1.65142 -0.79822,-0.6819 -1.67527,-2.11355 -1.97385,-3.22202 -0.22144,-0.82209 -0.22265,-1.00099 -0.037,-5.46819 0.17245,-4.15095 0.21657,-4.68838 0.43599,-5.31087 0.54689,-1.5515 1.50671,-2.72699 2.89372,-3.54388 1.05016,-0.61853 2.14278,-0.8756 3.82403,-0.89971 l 1.41782,-0.0204 0.42309,-1.0365 c 0.92257,-2.26018 2.36792,-4.79467 3.93956,-6.908159 l 0.7925,-1.06575 -0.29924,-0.43632 c -0.48605,-0.70865 -2.53735,-3.31151 -2.91383,-3.69722 -0.41372,-0.4239 -0.59098,-0.96982 -0.45432,-1.39883 0.41209,-1.2933 4.57574,-5.16823 7.18685,-6.68847 0.34652,-0.20145 0.63143,-0.40549 0.63337,-0.45302 0.002,-0.0474 -0.47706,-0.25165 -1.06451,-0.45374 -1.28962,-0.44365 -1.76148,-0.87102 -1.61694,-1.46449 0.0485,-0.19893 0.198,-0.46271 0.33232,-0.58618 0.33181,-0.30501 0.84761,-0.25157 3.55054,0.3679 3.34093,0.76568 3.83603,0.91661 4.15945,1.26807 0.513,0.55748 0.39401,0.87024 -1.02317,2.68902 -0.7021,0.90107 -1.62255,2.10608 -2.04543,2.67782 -0.42291,0.57175 -0.71768,0.73887 -0.82007,0.77337 -0.48885,0.17075 -0.86829,-0.13592 -1.08562,-0.33285 -0.26982,-0.24449 -0.30403,-0.79039 -0.18923,-1.10617 0.0788,-0.21663 0.30472,-0.77899 0.86693,-1.56446 0.16577,-0.23162 0.0707,-0.19927 -0.55581,0.18917 -1.63512,1.01376 -4.35098,3.3313 -5.41454,4.62039 -0.34368,0.41656 -0.34551,0.42569 -0.14342,0.71155 0.22168,0.31358 2.38413,2.98578 2.41732,2.98716 0.0108,7.8e-4 0.78687,-0.692 1.72388,-1.5388 1.91484,-1.73045 3.06465,-2.60889 4.82883,-3.68911 2.64888,-1.62194 5.03256,-2.72757 7.42983,-3.44628 7.18127,-2.15289 14.38252,-1.98601 21.53463,0.49904 2.70007,0.93815 4.67154,1.96083 7.9478,4.12283 1.6885,1.11423 1.75896,1.14833 1.94291,0.94011 0.91164,-1.03184 2.30208,-2.51369 2.44997,-2.5635 0.34464,-0.11608 0.71097,-0.1249 0.92573,0.14902 0.29392,0.37487 0.39011,1.19313 0.54778,2.20122 0.11437,0.73122 0.3217,2.29885 0.51475,3.57496 l 0.33971,2.24548 1.03957,1.507199 c 1.77018,2.56643 3.25198,5.53979 4.14908,8.32511 l 0.38652,1.20013 1.41497,0.12815 c 2.23842,0.20266 3.39671,0.68671 4.62078,1.93097 0.85888,0.87304 1.31445,1.62459 1.68077,2.77258 l 0.27508,0.86215 -0.19186,4.61829 c -0.18441,4.4383 -0.2033,4.64977 -0.48404,5.42599 -0.73205,2.02377 -2.22952,3.4868 -4.27411,4.17579 -0.67322,0.22687 -1.05716,0.27035 -2.33999,0.26492 l -1.53461,-0.007 -0.30014,0.85055 c -0.39186,1.11048 -1.7109,3.75193 -2.48609,4.97847 -2.12644,3.36463 -5.31006,6.88243 -8.35574,9.23292 -2.06222,1.5915 -5.6757,3.5872 -8.21117,4.53496 -2.20594,0.82461 -5.47625,1.57254 -8.27709,1.893 -1.18702,0.13582 -6.59759,0.0645 -7.60868,-0.10025 z m 7.71416,-4.34484 c 4.36176,-0.45398 8.41971,-2.13401 12.19803,-4.41429 6.33867,-3.82554 10.60848,-10.1612 12.27335,-17.4902 1.27318,-5.60481 1.09482,-11.08589 -0.93998,-16.24766 -0.87648,-2.22347 -2.86983,-6.07389 -4.01077,-7.45305 l -3.87015,-0.35357 v 0 c 0,0 -2.80304,-0.42683 -3.04637,-0.67523 -0.18404,-0.18795 -0.26418,-0.403769 -0.25262,-0.681149 0.014,-0.33712 0.17694,-0.5782 0.95989,-1.42023 l 0.94304,-1.01418 0.60009,-0.71697 c 0.48963,-0.58499 -3.25565,-2.36671 -4.37675,-2.9468 -5.82798,-3.01555 -13.24297,-4.35275 -19.7205,-2.95922 -3.6965,0.79524 -7.62886,2.56269 -11.05242,5.03985 -5.2941,3.83059 -9.66673,10.712819 -11.03105,17.491729 -0.332,1.64958 -0.55916,6.00544 -0.45789,7.71175 0.27339,4.60611 2.31701,9.60671 4.5725,13.27859 4.37186,7.1173 12.16071,11.61287 20.47584,12.767 1.44774,0.20095 5.26753,0.23644 6.73576,0.0836 z m -19.89588,-14.71271 c -1.42161,-0.43629 -2.59328,-1.19266 -3.67614,-2.3731 -5.02861,-5.46315 -4.19301,-17.92215 0.87146,-22.52687 0.94602,-0.87127 1.27666,-1.0943 2.23912,-1.51034 2.00287,-0.86578 1.04075,-0.85735 17.888,-0.1565 14.55648,0.6056 15.82154,0.82618 16.76615,1.09441 0.73136,0.34046 1.44395,0.68792 1.99508,1.20562 7.10676,4.73121 5.45002,19.18408 0.33504,23.49961 -0.80112,0.6759 -1.6554,1.283 -2.94103,1.6258 -3.85143,1.02696 -10.41447,0.0411 -17.49591,0.0329 -14.50576,-0.60667 -15.17605,-0.64432 -15.98159,-0.89151 z m 31.55021,-1.15886 c 1.48988,-0.24574 2.32039,-0.96207 3.85745,-2.59172 3.38954,-3.59372 4.06383,-13.45985 -0.49528,-17.96569 -0.53138,-0.52517 -1.69008,-1.18197 -2.44509,-1.51495 -0.82075,-0.36197 -29.68293,-1.41727 -30.56277,-1.26894 -0.98357,0.16576 -1.99482,0.63085 -2.74372,1.26184 -4.79215,5.21213 -3.95784,13.63718 -1.96073,17.83137 0.59629,1.30879 1.90502,2.43584 3.33731,2.87398 0.69945,0.21397 1.96153,0.28325 15.57454,0.85503 10.35909,0.43539 15.00133,0.59122 15.43834,0.51913 z m -16.62898,-2.84593 c -1.37045,-0.44489 -2.60065,-1.32352 -2.86556,-2.0466 -0.16802,-0.45862 0.041,-0.96737 0.46881,-1.14124 0.43279,-0.17586 0.52137,-0.1512 1.17006,0.32594 1.65219,1.21531 3.34193,1.40862 4.82539,0.55206 1.2708,-0.73379 1.40074,-0.77604 1.74518,-0.56353 0.45117,0.27812 0.63221,0.76866 0.43814,1.18714 -0.2331,0.50269 -1.14124,1.21079 -2.03347,1.58562 -0.70174,0.29476 -0.93513,0.33236 -1.9667,0.31678 -0.76442,-0.0115 -1.38257,-0.0866 -1.78185,-0.21617 z m -14.10823,-4.71661 c -0.43537,-0.26401 -0.7919,-0.89059 -0.77233,-1.35772 0.0184,-0.44269 0.48967,-1.01674 1.11027,-1.35237 0.29635,-0.16071 2.11275,-1.0615 4.03601,-2.00247 1.92328,-0.94099 3.49681,-1.73975 3.49674,-1.77503 3e-5,-0.0354 -1.68136,-0.84473 -3.73618,-1.79879 -2.58118,-1.19843 -3.8261,-1.83677 -4.0273,-2.06505 -0.20812,-0.23608 -0.30022,-0.49579 -0.32271,-0.90965 -0.0288,-0.53035 0.003,-0.61409 0.38004,-0.99243 0.78295,-0.78617 0.66167,-0.82235 6.75304,2.01508 5.53007,2.57598 5.81533,2.74031 5.9588,3.43251 0.0948,0.45731 -0.0928,1.04913 -0.43134,1.36065 -0.1707,0.1571 -1.53027,0.87889 -3.0211,1.60428 -1.49091,0.72523 -3.93947,1.92374 -5.44126,2.66331 -1.60822,0.792 -2.90748,1.35905 -3.16102,1.37967 -0.28475,0.0232 -0.56286,-0.0453 -0.8215,-0.20208 z m 25.9787,-1.09619 c -1.25795,-0.47605 -2.18174,-1.32699 -2.71721,-2.50291 -0.28615,-0.62844 -0.30823,-0.79008 -0.26153,-1.91404 0.0458,-1.10311 0.0864,-1.29283 0.40033,-1.87014 0.38705,-0.71181 1.38734,-1.65073 2.11068,-1.98115 0.67796,-0.30967 1.77567,-0.45982 2.54109,-0.34753 1.47143,0.21587 2.88533,1.32459 3.45711,2.71092 0.2723,0.66024 0.30051,0.8696 0.25723,1.91066 -0.0434,1.04448 -0.0866,1.23903 -0.40452,1.82396 -0.80709,1.48472 -2.2827,2.35553 -3.97985,2.34858 -0.56508,-0.002 -1.12669,-0.0737 -1.40334,-0.17837 z"
         id="path26758"
         sodipodi:nodetypes="csscsscsssssscscsscsscssssssscsscssscsssssssscssscsscsscssssssscsscssscscsscssssscccsssccsssscsssssssscccccssccssccccssssccccccsssscscscsccscssssssssscsscssssssscccc" />
    </g>
    <g
       inkscape:label="teal"
       inkscape:groupmode="layer"
       id="g59505"
       style="display:none">
      <circle
         style="display:inline;fill:#2ca089;fill-opacity:1;fill-rule:evenodd;stroke-width:0.300124"
         id="circle59499"
         cx="154.74472"
         cy="45.265472"
         r="30.001532" />
      <path
         style="display:inline;fill:#c3fff8;fill-opacity:1;stroke:none;stroke-width:0.264583px;stroke-linecap:butt;stroke-linejoin:miter;stroke-opacity:1"
         d="m 135.94731,34.765771 c 0,0 -11.64081,8.70525 2.22085,23.4357 1.39527,1.48272 8.81642,-0.85529 8.81642,-0.85529 0,0 11.5354,1.81922 21.81274,1.93344 1.33548,0.0148 13.36028,-7.58636 5.95426,-24.31573 -0.26261,-0.59322 -1.31884,-0.18573 -2.03428,-0.26103 l -1.25007,-0.13159 -26.92037,-2.00382 -6.75735,0.48771"
         id="path59501"
         sodipodi:nodetypes="cscsssccc" />
      <path
         style="display:inline;fill:#09293f;fill-opacity:1;stroke-width:0.11702"
         d="m 150.1525,77.653781 c -2.98059,-0.48574 -4.53859,-0.90128 -7.29772,-1.94637 -5.19587,-1.96808 -10.16919,-5.55594 -13.81471,-9.9662 l -0.82786,-1.09628 -0.63653,0.50982 c -0.35374,0.28332 -1.14089,0.87949 -1.66049,1.2996 l -0.9193,0.74326 1.11342,1.21181 c 1.08292,1.17863 1.18154,1.34453 1.16514,1.73924 -0.0234,0.5627 -0.19113,0.83404 -0.64677,1.04617 -0.67622,0.31478 -1.15532,0.31097 -2.37124,-1.06227 -1.71279,-1.93438 -3.2306,-3.98221 -4.27021,-5.88681 -0.63581,-1.16485 -0.495,-1.81199 0.11942,-2.18265 0.72217,-0.43566 1.35074,-0.14935 2.03922,0.89571 0.21563,0.37311 0.64171,1.04827 0.94684,1.50038 l 0.41508,0.61272 0.89053,-0.60347 c 0.41435,-0.28079 0.9995,-0.736 1.51327,-1.14008 l 0.94843,-0.74594 -0.5794,-0.94855 c -1.15547,-1.89173 -2.36993,-4.70983 -2.99711,-6.95474 l -0.28966,-1.03684 -1.2959,-0.0538 c -1.94334,-0.0807 -3.15569,-0.52864 -4.47002,-1.65142 -0.79822,-0.6819 -1.67527,-2.11355 -1.97385,-3.22202 -0.22144,-0.82209 -0.22265,-1.00099 -0.037,-5.46819 0.17245,-4.15095 0.21657,-4.68838 0.43599,-5.31087 0.54689,-1.5515 1.50671,-2.72699 2.89372,-3.54389 1.05016,-0.61853 2.14278,-0.8756 3.82403,-0.89971 l 1.41782,-0.0204 0.42309,-1.0365 c 0.92257,-2.26018 2.36792,-4.79467 3.93956,-6.90816 l 0.7925,-1.06575 -0.29924,-0.43632 c -0.48605,-0.70865 -2.53735,-3.31151 -2.91383,-3.69722 -0.41372,-0.4239 -0.59098,-0.96982 -0.45432,-1.39883 0.41209,-1.2933 4.57574,-5.16823 7.18685,-6.68847 0.34652,-0.20145 0.63143,-0.40549 0.63337,-0.45302 0.002,-0.0474 -0.47706,-0.25165 -1.06451,-0.45374 -1.28962,-0.44365 -1.76148,-0.87102 -1.61694,-1.4644901 0.0485,-0.198931 0.198,-0.46271 0.33232,-0.58618 0.33181,-0.30501 0.84761,-0.25157 3.55054,0.367899 3.34093,0.7656811 3.83603,0.9166111 4.15945,1.2680711 0.513,0.55748 0.39401,0.87024 -1.02317,2.68902 -0.7021,0.90107 -1.62255,2.10608 -2.04543,2.67782 -0.42291,0.57175 -0.71768,0.73887 -0.82007,0.77337 -0.48885,0.17075 -0.86829,-0.13592 -1.08562,-0.33285 -0.26982,-0.24449 -0.30403,-0.79039 -0.18923,-1.10617 0.0788,-0.21663 0.30472,-0.77899 0.86693,-1.56446 0.16577,-0.23162 0.0707,-0.19927 -0.55581,0.18917 -1.63512,1.01376 -4.35098,3.3313 -5.41454,4.62039 -0.34368,0.41656 -0.34551,0.42569 -0.14342,0.71155 0.22168,0.31358 2.38413,2.98578 2.41732,2.98716 0.0108,7.8e-4 0.78687,-0.692 1.72388,-1.5388 1.91484,-1.73045 3.06465,-2.60889 4.82883,-3.68911 2.64888,-1.62194 5.03256,-2.72757 7.42983,-3.44628 7.18127,-2.15289 14.38252,-1.98601 21.53463,0.49904 2.70007,0.93815 4.67154,1.96083 7.9478,4.12283 1.6885,1.11423 1.75896,1.14833 1.94291,0.94011 0.91164,-1.03184 2.30208,-2.51368 2.44997,-2.5635 0.34464,-0.11608 0.71097,-0.12489 0.92573,0.14902 0.29392,0.37487 0.39011,1.19313 0.54778,2.20123 0.11437,0.73121 0.3217,2.29885 0.51475,3.57495 l 0.33971,2.24548 1.03957,1.5072 c 1.77018,2.56643 3.25198,5.53979 4.14908,8.32511 l 0.38652,1.20014 1.41497,0.12815 c 2.23842,0.20266 3.39671,0.68671 4.62078,1.93097 0.85888,0.87304 1.31445,1.62459 1.68077,2.77258 l 0.27508,0.86215 -0.19186,4.61829 c -0.18441,4.4383 -0.2033,4.64977 -0.48404,5.42599 -0.73205,2.02377 -2.22952,3.4868 -4.27411,4.17579 -0.67322,0.22687 -1.05716,0.27035 -2.33999,0.26492 l -1.53461,-0.007 -0.30014,0.85055 c -0.39186,1.11048 -1.7109,3.75193 -2.48609,4.97847 -2.12644,3.36463 -5.31006,6.88243 -8.35574,9.23292 -2.06222,1.5915 -5.6757,3.5872 -8.21117,4.53496 -2.20594,0.82461 -5.47625,1.57254 -8.27709,1.893 -1.18702,0.13582 -6.59759,0.0645 -7.60868,-0.10025 z m 7.71416,-4.34484 c 4.36176,-0.45398 8.41971,-2.13402 12.19803,-4.4143 6.33867,-3.82554 10.60848,-10.16119 12.27335,-17.49019 1.27318,-5.60481 1.09482,-11.0859 -0.93998,-16.24767 -0.87648,-2.22347 -2.86983,-6.07388 -4.01077,-7.45304 l -3.87015,-0.35358 v 0 c 0,0 -2.80304,-0.42683 -3.04637,-0.67523 -0.18404,-0.18795 -0.26418,-0.40377 -0.25262,-0.68115 0.014,-0.33712 0.17694,-0.5782 0.95989,-1.42023 l 0.94304,-1.01418 0.60009,-0.71696 c 0.48963,-0.58499 -3.25565,-2.36671 -4.37675,-2.9468 -5.82798,-3.01556 -13.24297,-4.352757 -19.7205,-2.95923 -3.6965,0.79524 -7.62886,2.56269 -11.05242,5.03985 -5.2941,3.83059 -9.66673,10.71283 -11.03105,17.49173 -0.332,1.64958 -0.55916,6.00544 -0.45789,7.71175 0.27339,4.60611 2.31701,9.60671 4.5725,13.27859 4.37186,7.1173 12.16071,11.61288 20.47584,12.76701 1.44774,0.20095 5.26753,0.23644 6.73576,0.0836 z m -19.89588,-14.71271 c -1.42161,-0.43629 -2.59328,-1.19266 -3.67614,-2.3731 -5.02861,-5.46315 -4.19301,-17.92215 0.87146,-22.52688 0.94602,-0.87127 1.27666,-1.0943 2.23912,-1.51034 2.00287,-0.86578 1.04075,-0.85735 17.888,-0.1565 14.55648,0.6056 15.82154,0.82619 16.76615,1.09442 0.73136,0.34046 1.44395,0.68791 1.99508,1.20561 7.10676,4.73122 5.45002,19.18409 0.33504,23.49962 -0.80112,0.6759 -1.6554,1.283 -2.94103,1.6258 -3.85143,1.02696 -10.41447,0.0411 -17.49591,0.0329 -14.50576,-0.60667 -15.17605,-0.64432 -15.98159,-0.89151 z m 31.55021,-1.15886 c 1.48988,-0.24574 2.32039,-0.96207 3.85745,-2.59172 3.38954,-3.59372 4.06383,-13.45985 -0.49528,-17.96569 -0.53138,-0.52517 -1.69008,-1.18197 -2.44509,-1.51495 -0.82075,-0.36197 -29.68293,-1.41728 -30.56277,-1.26895 -0.98357,0.16576 -1.99482,0.63085 -2.74372,1.26185 -4.79215,5.21213 -3.95784,13.63718 -1.96073,17.83137 0.59629,1.30879 1.90502,2.43584 3.33731,2.87398 0.69945,0.21397 1.96153,0.28325 15.57454,0.85503 10.35909,0.43539 15.00133,0.59122 15.43834,0.51913 z m -16.62898,-2.84593 c -1.37045,-0.44489 -2.60065,-1.32352 -2.86556,-2.0466 -0.16802,-0.45862 0.041,-0.96737 0.46881,-1.14124 0.43279,-0.17586 0.52137,-0.1512 1.17006,0.32594 1.65219,1.21531 3.34193,1.40862 4.82539,0.55206 1.2708,-0.73379 1.40074,-0.77604 1.74518,-0.56353 0.45117,0.27812 0.63221,0.76866 0.43814,1.18714 -0.2331,0.50269 -1.14124,1.21079 -2.03347,1.58562 -0.70174,0.29476 -0.93513,0.33236 -1.9667,0.31678 -0.76442,-0.0115 -1.38257,-0.0866 -1.78185,-0.21617 z m -14.10823,-4.71661 c -0.43537,-0.26401 -0.7919,-0.89059 -0.77233,-1.35772 0.0184,-0.44269 0.48967,-1.01674 1.11027,-1.35237 0.29635,-0.16071 2.11275,-1.0615 4.03601,-2.00247 1.92328,-0.94099 3.49681,-1.73975 3.49674,-1.77503 3e-5,-0.0354 -1.68136,-0.84473 -3.73618,-1.79879 -2.58118,-1.19843 -3.8261,-1.83677 -4.0273,-2.06505 -0.20812,-0.23608 -0.30022,-0.49579 -0.32271,-0.90965 -0.0288,-0.53035 0.003,-0.61409 0.38004,-0.99243 0.78295,-0.78617 0.66167,-0.82235 6.75304,2.01508 5.53007,2.57598 5.81533,2.74031 5.9588,3.43251 0.0948,0.45731 -0.0928,1.04913 -0.43134,1.36065 -0.1707,0.1571 -1.53027,0.87889 -3.0211,1.60428 -1.49091,0.72523 -3.93947,1.92374 -5.44126,2.66331 -1.60822,0.792 -2.90748,1.35905 -3.16102,1.37967 -0.28475,0.0232 -0.56286,-0.0453 -0.8215,-0.20208 z m 25.9787,-1.09619 c -1.25795,-0.47605 -2.18174,-1.32699 -2.71721,-2.50291 -0.28615,-0.62844 -0.30823,-0.79008 -0.26153,-1.91404 0.0458,-1.10311 0.0864,-1.29283 0.40033,-1.87014 0.38705,-0.71181 1.38734,-1.65073 2.11068,-1.98115 0.67796,-0.30967 1.77567,-0.45982 2.54109,-0.34753 1.47143,0.21587 2.88533,1.32459 3.45711,2.71092 0.2723,0.66024 0.30051,0.8696 0.25723,1.91066 -0.0434,1.04448 -0.0866,1.23903 -0.40452,1.82396 -0.80709,1.48472 -2.2827,2.35553 -3.97985,2.34858 -0.56508,-0.002 -1.12669,-0.0737 -1.40334,-0.17837 z"
         id="path59503"
         sodipodi:nodetypes="csscsscsssssscscsscsscssssssscsscssscsssssssscssscsscsscssssssscsscssscscsscssssscccsssccsssscsssssssscccccssccssccccssssccccccsssscscscsccscssssssssscsscssssssscccc" />
    </g>
    <g
       inkscape:label="dark blue"
       inkscape:groupmode="layer"
       id="g158487"
       style="display:none">
      <circle
         style="display:inline;fill:#2c86b0;fill-opacity:1;fill-rule:evenodd;stroke-width:0.300124"
         id="circle158481"
         cx="162.29285"
         cy="39.525448"
         r="30.001532" />
      <path
         style="display:inline;fill:#fafdbd;fill-opacity:1;stroke:none;stroke-width:0.264583px;stroke-linecap:butt;stroke-linejoin:miter;stroke-opacity:1"
         d="m 143.49542,29.025747 c 0,0 -11.64081,8.70525 2.22085,23.4357 1.39527,1.48272 8.81642,-0.85529 8.81642,-0.85529 0,0 11.5354,1.81922 21.81274,1.93344 1.33548,0.0148 13.36028,-7.58636 5.95426,-24.31573 -0.26261,-0.59322 -1.31884,-0.18573 -2.03428,-0.26103 l -1.25007,-0.13159 -26.92037,-2.00382 -6.75735,0.48771"
         id="path158483"
         sodipodi:nodetypes="cscsssccc" />
      <path
         style="display:inline;fill:#061440;fill-opacity:1;stroke-width:0.11702"
         d="m 157.70061,71.913757 c -2.98059,-0.48574 -4.53859,-0.90128 -7.29772,-1.94637 -5.19587,-1.96808 -10.16919,-5.55594 -13.81471,-9.9662 l -0.82786,-1.09628 -0.63653,0.50982 c -0.35374,0.28332 -1.14089,0.87949 -1.66049,1.2996 l -0.9193,0.74326 1.11342,1.21181 c 1.08292,1.17863 1.18154,1.34453 1.16514,1.73924 -0.0234,0.5627 -0.19113,0.83404 -0.64677,1.04617 -0.67622,0.31478 -1.15532,0.31097 -2.37124,-1.06227 -1.71279,-1.93438 -3.2306,-3.98221 -4.27021,-5.88681 -0.63581,-1.16485 -0.495,-1.81199 0.11942,-2.18265 0.72217,-0.43566 1.35074,-0.14935 2.03922,0.89571 0.21563,0.37311 0.64171,1.04827 0.94684,1.50038 l 0.41508,0.61272 0.89053,-0.60347 c 0.41435,-0.28079 0.9995,-0.736 1.51327,-1.14008 l 0.94843,-0.74594 -0.5794,-0.94855 c -1.15547,-1.89173 -2.36993,-4.70983 -2.99711,-6.95474 l -0.28966,-1.03684 -1.2959,-0.0538 c -1.94334,-0.0807 -3.15569,-0.52864 -4.47002,-1.65142 -0.79822,-0.6819 -1.67527,-2.11355 -1.97385,-3.22202 -0.22144,-0.82209 -0.22265,-1.00099 -0.037,-5.46819 0.17245,-4.15095 0.21657,-4.68838 0.43599,-5.31087 0.54689,-1.5515 1.50671,-2.72699 2.89372,-3.54389 1.05016,-0.61853 2.14278,-0.8756 3.82403,-0.89971 l 1.41782,-0.0204 0.42309,-1.0365 c 0.92257,-2.26018 2.36792,-4.79467 3.93956,-6.908159 l 0.7925,-1.06575 -0.29924,-0.43632 c -0.48605,-0.70865 -2.53735,-3.31151 -2.91383,-3.69722 -0.41372,-0.4239 -0.59098,-0.96982 -0.45432,-1.39883 0.41209,-1.2933 4.57574,-5.1682302 7.18685,-6.6884702 0.34652,-0.20145 0.63143,-0.40549 0.63337,-0.45302 0.002,-0.0474 -0.47706,-0.25165 -1.06451,-0.45374 -1.28962,-0.44365 -1.76148,-0.87102 -1.61694,-1.46449 0.0485,-0.19893 0.198,-0.46271 0.33232,-0.58618 0.33181,-0.30501 0.84761,-0.25157 3.55054,0.3679 3.34093,0.76568 3.83603,0.91661 4.15945,1.26807 0.513,0.55748 0.39401,0.87024 -1.02317,2.68902 -0.7021,0.90107 -1.62255,2.10608 -2.04543,2.6778202 -0.42291,0.57175 -0.71768,0.73887 -0.82007,0.77337 -0.48885,0.17075 -0.86829,-0.13592 -1.08562,-0.33285 -0.26982,-0.24449 -0.30403,-0.79039 -0.18923,-1.1061702 0.0788,-0.21663 0.30472,-0.77899 0.86693,-1.56446 0.16577,-0.23162 0.0707,-0.19927 -0.55581,0.18917 -1.63512,1.01376 -4.35098,3.3313002 -5.41454,4.6203902 -0.34368,0.41656 -0.34551,0.42569 -0.14342,0.71155 0.22168,0.31358 2.38413,2.98578 2.41732,2.98716 0.0108,7.8e-4 0.78687,-0.692 1.72388,-1.5388 1.91484,-1.73045 3.06465,-2.60889 4.82883,-3.68911 2.64888,-1.6219402 5.03256,-2.7275702 7.42983,-3.4462802 7.18127,-2.15289 14.38252,-1.98601 21.53463,0.49904 2.70007,0.93815 4.67154,1.9608302 7.9478,4.1228302 1.6885,1.11423 1.75896,1.14833 1.94291,0.94011 0.91164,-1.03184 2.30208,-2.51368 2.44997,-2.5635 0.34464,-0.11608 0.71097,-0.12489 0.92573,0.14902 0.29392,0.37487 0.39011,1.19313 0.54778,2.20123 0.11437,0.73121 0.3217,2.29885 0.51475,3.57495 l 0.33971,2.24548 1.03957,1.507199 c 1.77018,2.56643 3.25198,5.53979 4.14908,8.32511 l 0.38652,1.20014 1.41497,0.12815 c 2.23842,0.20266 3.39671,0.68671 4.62078,1.93097 0.85888,0.87304 1.31445,1.62459 1.68077,2.77258 l 0.27508,0.86215 -0.19186,4.61829 c -0.18441,4.4383 -0.2033,4.64977 -0.48404,5.42599 -0.73205,2.02377 -2.22952,3.4868 -4.27411,4.17579 -0.67322,0.22687 -1.05716,0.27035 -2.33999,0.26492 l -1.53461,-0.007 -0.30014,0.85055 c -0.39186,1.11048 -1.7109,3.75193 -2.48609,4.97847 -2.12644,3.36463 -5.31006,6.88243 -8.35574,9.23292 -2.06222,1.5915 -5.6757,3.5872 -8.21117,4.53496 -2.20594,0.82461 -5.47625,1.57254 -8.27709,1.893 -1.18702,0.13582 -6.59759,0.0645 -7.60868,-0.10025 z m 7.71416,-4.34484 c 4.36176,-0.45398 8.41971,-2.13402 12.19803,-4.4143 6.33867,-3.82554 10.60848,-10.16119 12.27335,-17.49019 1.27318,-5.60481 1.09482,-11.0859 -0.93998,-16.24767 -0.87648,-2.22347 -2.86983,-6.07388 -4.01077,-7.45304 l -3.87015,-0.35358 v 0 c 0,0 -2.80304,-0.42683 -3.04637,-0.67523 -0.18404,-0.18795 -0.26418,-0.40377 -0.25262,-0.68115 0.014,-0.337119 0.17694,-0.578199 0.95989,-1.420229 l 0.94304,-1.01418 0.60009,-0.71696 c 0.48963,-0.58499 -3.25565,-2.36671 -4.37675,-2.9468 -5.82798,-3.01556 -13.24297,-4.3527602 -19.7205,-2.95923 -3.6965,0.79524 -7.62886,2.56269 -11.05242,5.03985 -5.2941,3.830589 -9.66673,10.712829 -11.03105,17.491729 -0.332,1.64958 -0.55916,6.00544 -0.45789,7.71175 0.27339,4.60611 2.31701,9.60671 4.5725,13.27859 4.37186,7.1173 12.16071,11.61288 20.47584,12.76701 1.44774,0.20095 5.26753,0.23644 6.73576,0.0836 z m -19.89588,-14.71271 c -1.42161,-0.43629 -2.59328,-1.19266 -3.67614,-2.3731 -5.02861,-5.46315 -4.19301,-17.92215 0.87146,-22.52688 0.94602,-0.87127 1.27666,-1.0943 2.23912,-1.51034 2.00287,-0.86578 1.04075,-0.85735 17.888,-0.1565 14.55648,0.6056 15.82154,0.82619 16.76615,1.09442 0.73136,0.34046 1.44395,0.68791 1.99508,1.20561 7.10676,4.73122 5.45002,19.18409 0.33504,23.49962 -0.80112,0.6759 -1.6554,1.283 -2.94103,1.6258 -3.85143,1.02696 -10.41447,0.0411 -17.49591,0.0329 -14.50576,-0.60667 -15.17605,-0.64432 -15.98159,-0.89151 z m 31.55021,-1.15886 c 1.48988,-0.24574 2.32039,-0.96207 3.85745,-2.59172 3.38954,-3.59372 4.06383,-13.45985 -0.49528,-17.96569 -0.53138,-0.52517 -1.69008,-1.18197 -2.44509,-1.51495 -0.82075,-0.36197 -29.68293,-1.41728 -30.56277,-1.26895 -0.98357,0.16576 -1.99482,0.63085 -2.74372,1.26185 -4.79215,5.21213 -3.95784,13.63718 -1.96073,17.83137 0.59629,1.30879 1.90502,2.43584 3.33731,2.87398 0.69945,0.21397 1.96153,0.28325 15.57454,0.85503 10.35909,0.43539 15.00133,0.59122 15.43834,0.51913 z m -16.62898,-2.84593 c -1.37045,-0.44489 -2.60065,-1.32352 -2.86556,-2.0466 -0.16802,-0.45862 0.041,-0.96737 0.46881,-1.14124 0.43279,-0.17586 0.52137,-0.1512 1.17006,0.32594 1.65219,1.21531 3.34193,1.40862 4.82539,0.55206 1.2708,-0.73379 1.40074,-0.77604 1.74518,-0.56353 0.45117,0.27812 0.63221,0.76866 0.43814,1.18714 -0.2331,0.50269 -1.14124,1.21079 -2.03347,1.58562 -0.70174,0.29476 -0.93513,0.33236 -1.9667,0.31678 -0.76442,-0.0115 -1.38257,-0.0866 -1.78185,-0.21617 z m -14.10823,-4.71661 c -0.43537,-0.26401 -0.7919,-0.89059 -0.77233,-1.35772 0.0184,-0.44269 0.48967,-1.01674 1.11027,-1.35237 0.29635,-0.16071 2.11275,-1.0615 4.03601,-2.00247 1.92328,-0.94099 3.49681,-1.73975 3.49674,-1.77503 3e-5,-0.0354 -1.68136,-0.84473 -3.73618,-1.79879 -2.58118,-1.19843 -3.8261,-1.83677 -4.0273,-2.06505 -0.20812,-0.23608 -0.30022,-0.49579 -0.32271,-0.90965 -0.0288,-0.53035 0.003,-0.61409 0.38004,-0.99243 0.78295,-0.78617 0.66167,-0.82235 6.75304,2.01508 5.53007,2.57598 5.81533,2.74031 5.9588,3.43251 0.0948,0.45731 -0.0928,1.04913 -0.43134,1.36065 -0.1707,0.1571 -1.53027,0.87889 -3.0211,1.60428 -1.49091,0.72523 -3.93947,1.92374 -5.44126,2.66331 -1.60822,0.792 -2.90748,1.35905 -3.16102,1.37967 -0.28475,0.0232 -0.56286,-0.0453 -0.8215,-0.20208 z m 25.9787,-1.09619 c -1.25795,-0.47605 -2.18174,-1.32699 -2.71721,-2.50291 -0.28615,-0.62844 -0.30823,-0.79008 -0.26153,-1.91404 0.0458,-1.10311 0.0864,-1.29283 0.40033,-1.87014 0.38705,-0.71181 1.38734,-1.65073 2.11068,-1.98115 0.67796,-0.30967 1.77567,-0.45982 2.54109,-0.34753 1.47143,0.21587 2.88533,1.32459 3.45711,2.71092 0.2723,0.66024 0.30051,0.8696 0.25723,1.91066 -0.0434,1.04448 -0.0866,1.23903 -0.40452,1.82396 -0.80709,1.48472 -2.2827,2.35553 -3.97985,2.34858 -0.56508,-0.002 -1.12669,-0.0737 -1.40334,-0.17837 z"
         id="path158485"
         sodipodi:nodetypes="csscsscsssssscscsscsscssssssscsscssscsssssssscssscsscsscssssssscsscssscscsscssssscccsssccsssscsssssssscccccssccssccccssssccccccsssscscscsccscssssssssscsscssssssscccc" />
    </g>
    <g
       inkscape:label="another blue"
       inkscape:groupmode="layer"
       id="g143148"
       style="display:none">
      <circle
         style="display:inline;fill:#2c90a0;fill-opacity:1;fill-rule:evenodd;stroke-width:0.300124"
         id="circle143142"
         cx="153.31985"
         cy="120.02617"
         r="30.001532" />
      <path
         style="display:inline;fill:#cafaf4;fill-opacity:1;stroke:none;stroke-width:0.264583px;stroke-linecap:butt;stroke-linejoin:miter;stroke-opacity:1"
         d="m 134.52244,109.52646 c 0,0 -11.64081,8.70525 2.22085,23.4357 1.39527,1.48272 8.81642,-0.85529 8.81642,-0.85529 0,0 11.5354,1.81922 21.81274,1.93344 1.33548,0.0148 13.36028,-7.58636 5.95426,-24.31573 -0.26261,-0.59322 -1.31884,-0.18573 -2.03428,-0.26103 l -1.25007,-0.13159 -26.92037,-2.00382 -6.75735,0.48771"
         id="path143144"
         sodipodi:nodetypes="cscsssccc" />
      <path
         style="display:inline;fill:#12363a;fill-opacity:1;stroke-width:0.11702"
         d="m 148.72763,152.41447 c -2.98059,-0.48574 -4.53859,-0.90128 -7.29772,-1.94637 -5.19587,-1.96808 -10.16919,-5.55594 -13.81471,-9.9662 l -0.82786,-1.09628 -0.63653,0.50982 c -0.35374,0.28332 -1.14089,0.87949 -1.66049,1.2996 l -0.9193,0.74326 1.11342,1.21181 c 1.08292,1.17863 1.18154,1.34453 1.16514,1.73924 -0.0234,0.5627 -0.19113,0.83404 -0.64677,1.04617 -0.67622,0.31478 -1.15532,0.31097 -2.37124,-1.06227 -1.71279,-1.93438 -3.2306,-3.98221 -4.27021,-5.88681 -0.63581,-1.16485 -0.495,-1.81199 0.11942,-2.18265 0.72217,-0.43566 1.35074,-0.14935 2.03922,0.89571 0.21563,0.37311 0.64171,1.04827 0.94684,1.50038 l 0.41508,0.61272 0.89053,-0.60347 c 0.41435,-0.28079 0.9995,-0.736 1.51327,-1.14008 l 0.94843,-0.74594 -0.5794,-0.94855 c -1.15547,-1.89173 -2.36993,-4.70983 -2.99711,-6.95474 l -0.28966,-1.03684 -1.2959,-0.0538 c -1.94334,-0.0807 -3.15569,-0.52864 -4.47002,-1.65142 -0.79822,-0.6819 -1.67527,-2.11355 -1.97385,-3.22202 -0.22144,-0.82209 -0.22265,-1.00099 -0.037,-5.46819 0.17245,-4.15095 0.21657,-4.68838 0.43599,-5.31087 0.54689,-1.5515 1.50671,-2.72699 2.89372,-3.54389 1.05016,-0.61853 2.14278,-0.8756 3.82403,-0.89971 l 1.41782,-0.0204 0.42309,-1.0365 c 0.92257,-2.26018 2.36792,-4.79467 3.93956,-6.90816 l 0.7925,-1.065749 -0.29924,-0.43632 c -0.48605,-0.70865 -2.53735,-3.31151 -2.91383,-3.69722 -0.41372,-0.4239 -0.59098,-0.96982 -0.45432,-1.39883 0.41209,-1.2933 4.57574,-5.16823 7.18685,-6.68847 0.34652,-0.20145 0.63143,-0.40549 0.63337,-0.45302 0.002,-0.0474 -0.47706,-0.25165 -1.06451,-0.45374 -1.28962,-0.44365 -1.76148,-0.87102 -1.61694,-1.46449 0.0485,-0.19893 0.198,-0.46271 0.33232,-0.58618 0.33181,-0.30501 0.84761,-0.25157 3.55054,0.3679 3.34093,0.76568 3.83603,0.91661 4.15945,1.26807 0.513,0.55748 0.39401,0.87024 -1.02317,2.68902 -0.7021,0.90107 -1.62255,2.10608 -2.04543,2.67782 -0.42291,0.57175 -0.71768,0.73887 -0.82007,0.77337 -0.48885,0.17075 -0.86829,-0.13592 -1.08562,-0.33285 -0.26982,-0.24449 -0.30403,-0.79039 -0.18923,-1.10617 0.0788,-0.21663 0.30472,-0.77899 0.86693,-1.56446 0.16577,-0.23162 0.0707,-0.19927 -0.55581,0.18917 -1.63512,1.01376 -4.35098,3.3313 -5.41454,4.62039 -0.34368,0.41656 -0.34551,0.42569 -0.14342,0.71155 0.22168,0.31358 2.38413,2.98578 2.41732,2.98716 0.0108,7.8e-4 0.78687,-0.692 1.72388,-1.5388 1.91484,-1.73045 3.06465,-2.60889 4.82883,-3.68911 2.64888,-1.62194 5.03256,-2.72757 7.42983,-3.44628 7.18127,-2.15289 14.38252,-1.98601 21.53463,0.49904 2.70007,0.93815 4.67154,1.96083 7.9478,4.12283 1.6885,1.11423 1.75896,1.14833 1.94291,0.94011 0.91164,-1.03184 2.30208,-2.51368 2.44997,-2.5635 0.34464,-0.11608 0.71097,-0.12489 0.92573,0.14902 0.29392,0.37487 0.39011,1.19313 0.54778,2.20123 0.11437,0.73121 0.3217,2.29885 0.51475,3.57495 l 0.33971,2.24548 1.03957,1.507199 c 1.77018,2.56643 3.25198,5.53979 4.14908,8.32511 l 0.38652,1.20014 1.41497,0.12815 c 2.23842,0.20266 3.39671,0.68671 4.62078,1.93097 0.85888,0.87304 1.31445,1.62459 1.68077,2.77258 l 0.27508,0.86215 -0.19186,4.61829 c -0.18441,4.4383 -0.2033,4.64977 -0.48404,5.42599 -0.73205,2.02377 -2.22952,3.4868 -4.27411,4.17579 -0.67322,0.22687 -1.05716,0.27035 -2.33999,0.26492 l -1.53461,-0.007 -0.30014,0.85055 c -0.39186,1.11048 -1.7109,3.75193 -2.48609,4.97847 -2.12644,3.36463 -5.31006,6.88243 -8.35574,9.23292 -2.06222,1.5915 -5.6757,3.5872 -8.21117,4.53496 -2.20594,0.82461 -5.47625,1.57254 -8.27709,1.893 -1.18702,0.13582 -6.59759,0.0645 -7.60868,-0.10025 z m 7.71416,-4.34484 c 4.36176,-0.45398 8.41971,-2.13402 12.19803,-4.4143 6.33867,-3.82554 10.60848,-10.16119 12.27335,-17.49019 1.27318,-5.60481 1.09482,-11.0859 -0.93998,-16.24767 -0.87648,-2.22347 -2.86983,-6.07388 -4.01077,-7.45304 l -3.87015,-0.35358 v 0 c 0,0 -2.80304,-0.42683 -3.04637,-0.67523 -0.18404,-0.18795 -0.26418,-0.40377 -0.25262,-0.68115 0.014,-0.33712 0.17694,-0.5782 0.95989,-1.420229 l 0.94304,-1.01418 0.60009,-0.71696 c 0.48963,-0.58499 -3.25565,-2.36671 -4.37675,-2.9468 -5.82798,-3.01556 -13.24297,-4.35276 -19.7205,-2.95923 -3.6965,0.79524 -7.62886,2.56269 -11.05242,5.03985 -5.2941,3.830589 -9.66673,10.712829 -11.03105,17.491729 -0.332,1.64958 -0.55916,6.00544 -0.45789,7.71175 0.27339,4.60611 2.31701,9.60671 4.5725,13.27859 4.37186,7.1173 12.16071,11.61288 20.47584,12.76701 1.44774,0.20095 5.26753,0.23644 6.73576,0.0836 z m -19.89588,-14.71271 c -1.42161,-0.43629 -2.59328,-1.19266 -3.67614,-2.3731 -5.02861,-5.46315 -4.19301,-17.92215 0.87146,-22.52688 0.94602,-0.87127 1.27666,-1.0943 2.23912,-1.51034 2.00287,-0.86578 1.04075,-0.85735 17.888,-0.1565 14.55648,0.6056 15.82154,0.82619 16.76615,1.09442 0.73136,0.34046 1.44395,0.68791 1.99508,1.20561 7.10676,4.73122 5.45002,19.18409 0.33504,23.49962 -0.80112,0.6759 -1.6554,1.283 -2.94103,1.6258 -3.85143,1.02696 -10.41447,0.0411 -17.49591,0.0329 -14.50576,-0.60667 -15.17605,-0.64432 -15.98159,-0.89151 z m 31.55021,-1.15886 c 1.48988,-0.24574 2.32039,-0.96207 3.85745,-2.59172 3.38954,-3.59372 4.06383,-13.45985 -0.49528,-17.96569 -0.53138,-0.52517 -1.69008,-1.18197 -2.44509,-1.51495 -0.82075,-0.36197 -29.68293,-1.41728 -30.56277,-1.26895 -0.98357,0.16576 -1.99482,0.63085 -2.74372,1.26185 -4.79215,5.21213 -3.95784,13.63718 -1.96073,17.83137 0.59629,1.30879 1.90502,2.43584 3.33731,2.87398 0.69945,0.21397 1.96153,0.28325 15.57454,0.85503 10.35909,0.43539 15.00133,0.59122 15.43834,0.51913 z m -16.62898,-2.84593 c -1.37045,-0.44489 -2.60065,-1.32352 -2.86556,-2.0466 -0.16802,-0.45862 0.041,-0.96737 0.46881,-1.14124 0.43279,-0.17586 0.52137,-0.1512 1.17006,0.32594 1.65219,1.21531 3.34193,1.40862 4.82539,0.55206 1.2708,-0.73379 1.40074,-0.77604 1.74518,-0.56353 0.45117,0.27812 0.63221,0.76866 0.43814,1.18714 -0.2331,0.50269 -1.14124,1.21079 -2.03347,1.58562 -0.70174,0.29476 -0.93513,0.33236 -1.9667,0.31678 -0.76442,-0.0115 -1.38257,-0.0866 -1.78185,-0.21617 z m -14.10823,-4.71661 c -0.43537,-0.26401 -0.7919,-0.89059 -0.77233,-1.35772 0.0184,-0.44269 0.48967,-1.01674 1.11027,-1.35237 0.29635,-0.16071 2.11275,-1.0615 4.03601,-2.00247 1.92328,-0.94099 3.49681,-1.73975 3.49674,-1.77503 3e-5,-0.0354 -1.68136,-0.84473 -3.73618,-1.79879 -2.58118,-1.19843 -3.8261,-1.83677 -4.0273,-2.06505 -0.20812,-0.23608 -0.30022,-0.49579 -0.32271,-0.90965 -0.0288,-0.53035 0.003,-0.61409 0.38004,-0.99243 0.78295,-0.78617 0.66167,-0.82235 6.75304,2.01508 5.53007,2.57598 5.81533,2.74031 5.9588,3.43251 0.0948,0.45731 -0.0928,1.04913 -0.43134,1.36065 -0.1707,0.1571 -1.53027,0.87889 -3.0211,1.60428 -1.49091,0.72523 -3.93947,1.92374 -5.44126,2.66331 -1.60822,0.792 -2.90748,1.35905 -3.16102,1.37967 -0.28475,0.0232 -0.56286,-0.0453 -0.8215,-0.20208 z m 25.9787,-1.09619 c -1.25795,-0.47605 -2.18174,-1.32699 -2.71721,-2.50291 -0.28615,-0.62844 -0.30823,-0.79008 -0.26153,-1.91404 0.0458,-1.10311 0.0864,-1.29283 0.40033,-1.87014 0.38705,-0.71181 1.38734,-1.65073 2.11068,-1.98115 0.67796,-0.30967 1.77567,-0.45982 2.54109,-0.34753 1.47143,0.21587 2.88533,1.32459 3.45711,2.71092 0.2723,0.66024 0.30051,0.8696 0.25723,1.91066 -0.0434,1.04448 -0.0866,1.23903 -0.40452,1.82396 -0.80709,1.48472 -2.2827,2.35553 -3.97985,2.34858 -0.56508,-0.002 -1.12669,-0.0737 -1.40334,-0.17837 z"
         id="path143146"
         sodipodi:nodetypes="csscsscsssssscscsscsscssssssscsscssscsssssssscssscsscsscssssssscsscssscscsscssssscccsssccsssscsssssssscccccssccssccccssssccccccsssscscscsccscssssssssscsscssssssscccc" />
    </g>
    <g
       inkscape:label="basic"
       id="g1668"
       style="display:none">
      <path
         style="display:inline;fill:#000000;stroke-width:0.11702"
         d="m 52.779104,78.180119 c -2.98059,-0.48574 -4.53859,-0.90128 -7.29772,-1.94637 -5.19587,-1.96808 -10.16919,-5.555937 -13.81471,-9.966197 l -0.82786,-1.09628 -0.63653,0.50982 c -0.35374,0.28332 -1.14089,0.87949 -1.66049,1.2996 l -0.9193,0.74326 1.11342,1.21181 c 1.08292,1.17863 1.18154,1.34453 1.16514,1.73924 -0.0234,0.5627 -0.19113,0.83404 -0.64677,1.04617 -0.67622,0.31478 -1.15532,0.31097 -2.37124,-1.06227 -1.71279,-1.93438 -3.2306,-3.98221 -4.27021,-5.88681 -0.63581,-1.16485 -0.495,-1.81199 0.11942,-2.18265 0.72217,-0.43566 1.35074,-0.14935 2.03922,0.89571 0.21563,0.37311 0.64171,1.04827 0.94684,1.50038 l 0.41508,0.61272 0.89053,-0.60347 c 0.41435,-0.28079 0.9995,-0.736 1.51327,-1.14008 l 0.94843,-0.74594 -0.5794,-0.94855 c -1.15547,-1.89173 -2.36993,-4.70983 -2.99711,-6.95474 l -0.28966,-1.03684 -1.2959,-0.0538 c -1.94334,-0.0807 -3.15569,-0.52864 -4.47002,-1.65142 -0.79822,-0.6819 -1.67527,-2.11355 -1.97385,-3.22202 -0.22144,-0.82209 -0.22265,-1.00099 -0.037,-5.46819 0.17245,-4.15095 0.21657,-4.68838 0.43599,-5.31087 0.54689,-1.5515 1.50671,-2.72699 2.89372,-3.543888 1.05016,-0.61853 2.14278,-0.8756 3.82403,-0.89971 l 1.41782,-0.0204 0.42309,-1.0365 c 0.92257,-2.26018 2.36792,-4.79467 3.93956,-6.90816 l 0.7925,-1.06575 -0.29924,-0.43632 c -0.48605,-0.70865 -2.53735,-3.31151 -2.91383,-3.69722 -0.41372,-0.4239 -0.59098,-0.96982 -0.45432,-1.39883 0.41209,-1.293301 4.57574,-5.168231 7.18685,-6.688471 0.34652,-0.20145 0.63143,-0.40549 0.63337,-0.45302 0.002,-0.0474 -0.47706,-0.25165 -1.06451,-0.45374 -1.28962,-0.44365 -1.76148,-0.87102 -1.61694,-1.46449 0.0485,-0.19893 0.198,-0.4627099 0.33232,-0.5861799 0.33181,-0.30501 0.84761,-0.25157 3.55054,0.3678999 3.34093,0.76568 3.83603,0.91661 4.15945,1.26807 0.513,0.55748 0.39401,0.87024 -1.02317,2.68902 -0.7021,0.90107 -1.62255,2.10608 -2.04543,2.67782 -0.42291,0.57175 -0.71768,0.73887 -0.82007,0.77337 -0.48885,0.17075 -0.86829,-0.13592 -1.08562,-0.33285 -0.26982,-0.24449 -0.30403,-0.79039 -0.18923,-1.10617 0.0788,-0.21663 0.30472,-0.77899 0.86693,-1.56446 0.16577,-0.23162 0.0707,-0.19927 -0.55581,0.18917 -1.63512,1.01376 -4.35098,3.3313 -5.41454,4.620391 -0.34368,0.41656 -0.34551,0.42569 -0.14342,0.71155 0.22168,0.31358 2.38413,2.98578 2.41732,2.98716 0.0108,7.8e-4 0.78687,-0.692 1.72388,-1.5388 1.91484,-1.73045 3.06465,-2.60889 4.82883,-3.689111 2.64888,-1.62194 5.03256,-2.72757 7.42983,-3.44628 7.18127,-2.15289 14.38252,-1.98601 21.53463,0.49904 2.70007,0.93815 4.67154,1.96083 7.9478,4.122831 1.6885,1.11423 1.75896,1.14833 1.94291,0.94011 0.91164,-1.03184 2.30208,-2.513683 2.44997,-2.563496 0.34464,-0.116083 0.71097,-0.124898 0.92573,0.149016 0.29392,0.374869 0.39011,1.193131 0.54778,2.201226 0.11437,0.731217 0.3217,2.298849 0.51475,3.574957 l 0.33971,2.245477 1.03957,1.5072 c 1.77018,2.56643 3.25198,5.53979 4.14908,8.32511 l 0.38652,1.200138 1.41497,0.12815 c 2.23842,0.20266 3.39671,0.68671 4.62078,1.93097 0.85888,0.87304 1.31445,1.62459 1.68077,2.77258 l 0.27508,0.86215 -0.19186,4.61829 c -0.18441,4.4383 -0.2033,4.64977 -0.48404,5.42599 -0.73205,2.02377 -2.22952,3.4868 -4.27411,4.17579 -0.67322,0.22687 -1.05716,0.27035 -2.33999,0.26492 l -1.53461,-0.007 -0.30014,0.85055 c -0.39186,1.11048 -1.7109,3.75193 -2.48609,4.97847 -2.12644,3.36463 -5.31006,6.88243 -8.35574,9.23292 -2.06222,1.5915 -5.6757,3.587197 -8.21117,4.534957 -2.20594,0.82461 -5.47625,1.57254 -8.27709,1.893 -1.18702,0.13582 -6.59759,0.0645 -7.60868,-0.10025 z m 7.71416,-4.344837 c 4.36176,-0.45398 8.41971,-2.134015 12.19803,-4.414295 6.33867,-3.82554 10.60848,-10.161195 12.27335,-17.490195 1.27318,-5.60481 1.09482,-11.085899 -0.93998,-16.247669 -0.87648,-2.223468 -2.86983,-6.073881 -4.01077,-7.453041 l -3.87015,-0.353578 v 0 c 0,0 -2.80304,-0.42683 -3.04637,-0.67523 -0.18404,-0.18795 -0.26418,-0.40377 -0.25262,-0.68115 0.014,-0.33712 0.17694,-0.5782 0.95989,-1.42023 l 0.94304,-1.01418 0.60009,-0.716964 c 0.48963,-0.584988 -3.25565,-2.366711 -4.37675,-2.946801 -5.82798,-3.015551 -13.24297,-4.352753 -19.7205,-2.959223 -3.6965,0.795241 -7.62886,2.562688 -11.05242,5.039848 -5.2941,3.83059 -9.666727,10.712826 -11.031047,17.491734 -0.332,1.64958 -0.559161,6.005437 -0.457891,7.711747 0.27339,4.60611 2.317008,9.606713 4.572498,13.278593 4.37186,7.1173 12.16071,11.612874 20.47584,12.767004 1.44774,0.200947 5.26753,0.236437 6.73576,0.08363 z m -19.89588,-14.71271 c -1.42161,-0.43629 -2.59328,-1.19266 -3.67614,-2.3731 -5.02861,-5.46315 -4.19301,-17.92215 0.87146,-22.526878 0.94602,-0.87127 1.27666,-1.0943 2.23912,-1.51034 2.00287,-0.86578 1.04075,-0.85735 17.888,-0.1565 14.55648,0.6056 15.82154,0.826188 16.76615,1.094418 0.73136,0.34046 1.44395,0.687911 1.99508,1.205612 7.10676,4.731218 5.45002,19.184088 0.33504,23.499618 -0.80112,0.6759 -1.6554,1.283 -2.94103,1.6258 -3.85143,1.02696 -10.41447,0.0411 -17.49591,0.0329 -14.50576,-0.60667 -15.17605,-0.64432 -15.98159,-0.89151 z m 31.55021,-1.15886 c 1.48988,-0.24574 2.32039,-0.96207 3.85745,-2.59172 3.38954,-3.59372 4.06383,-13.45985 -0.49528,-17.96569 -0.53138,-0.52517 -1.69008,-1.18197 -2.44509,-1.51495 -0.82075,-0.36197 -29.68293,-1.417278 -30.56277,-1.268948 -0.98357,0.16576 -1.99482,0.63085 -2.74372,1.261848 -4.79215,5.21213 -3.95784,13.63718 -1.96073,17.83137 0.59629,1.30879 1.90502,2.43584 3.33731,2.87398 0.69945,0.21397 1.96153,0.28325 15.57454,0.85503 10.35909,0.43539 15.00133,0.59122 15.43834,0.51913 z m -16.62898,-2.84593 c -1.37045,-0.44489 -2.60065,-1.32352 -2.86556,-2.0466 -0.16802,-0.45862 0.041,-0.96737 0.46881,-1.14124 0.43279,-0.17586 0.52137,-0.1512 1.17006,0.32594 1.65219,1.21531 3.34193,1.40862 4.82539,0.55206 1.2708,-0.73379 1.40074,-0.77604 1.74518,-0.56353 0.45117,0.27812 0.63221,0.76866 0.43814,1.18714 -0.2331,0.50269 -1.14124,1.21079 -2.03347,1.58562 -0.70174,0.29476 -0.93513,0.33236 -1.9667,0.31678 -0.76442,-0.0115 -1.38257,-0.0866 -1.78185,-0.21617 z m -14.10823,-4.71661 c -0.43537,-0.26401 -0.7919,-0.89059 -0.77233,-1.35772 0.0184,-0.44269 0.48967,-1.01674 1.11027,-1.35237 0.29635,-0.16071 2.11275,-1.0615 4.03601,-2.00247 1.92328,-0.94099 3.49681,-1.73975 3.49674,-1.77503 3e-5,-0.0354 -1.68136,-0.84473 -3.73618,-1.79879 -2.58118,-1.19843 -3.8261,-1.83677 -4.0273,-2.06505 -0.20812,-0.23608 -0.30022,-0.49579 -0.32271,-0.90965 -0.0288,-0.53035 0.003,-0.61409 0.38004,-0.99243 0.78295,-0.78617 0.66167,-0.82235 6.75304,2.01508 5.53007,2.57598 5.81533,2.74031 5.9588,3.43251 0.0948,0.45731 -0.0928,1.04913 -0.43134,1.36065 -0.1707,0.1571 -1.53027,0.87889 -3.0211,1.60428 -1.49091,0.72523 -3.93947,1.92374 -5.44126,2.66331 -1.60822,0.792 -2.90748,1.35905 -3.16102,1.37967 -0.28475,0.0232 -0.56286,-0.0453 -0.8215,-0.20208 z m 25.9787,-1.09619 c -1.25795,-0.47605 -2.18174,-1.32699 -2.71721,-2.50291 -0.28615,-0.62844 -0.30823,-0.79008 -0.26153,-1.91404 0.0458,-1.10311 0.0864,-1.29283 0.40033,-1.87014 0.38705,-0.71181 1.38734,-1.65073 2.11068,-1.98115 0.67796,-0.30967 1.77567,-0.45982 2.54109,-0.34753 1.47143,0.21587 2.88533,1.32459 3.45711,2.71092 0.2723,0.66024 0.30051,0.8696 0.25723,1.91066 -0.0434,1.04448 -0.0866,1.23903 -0.40452,1.82396 -0.80709,1.48472 -2.2827,2.35553 -3.97985,2.34858 -0.56508,-0.002 -1.12669,-0.0737 -1.40334,-0.17837 z"
         id="path1666"
         sodipodi:nodetypes="csscsscsssssscscsscsscssssssscsscssscsssssssscssscsscsscssssssscsscssscscsscssssscccsssccsssscsssssssscccccssccssccccssssccccccsssscscscsccscssssssssscsscssssssscccc" />
    </g>
  </g>
</svg>
