<?xml version="1.0" encoding="utf-8" standalone="no"?>
<!DOCTYPE svg PUBLIC "-//W3C//DTD SVG 1.1//EN"
  "http://www.w3.org/Graphics/SVG/1.1/DTD/svg11.dtd">
<svg xmlns:xlink="http://www.w3.org/1999/xlink" width="1012.467812pt" height="531.367125pt" viewBox="0 0 1012.467812 531.367125" xmlns="http://www.w3.org/2000/svg" version="1.1">
 <metadata>
  <rdf:RDF xmlns:dc="http://purl.org/dc/elements/1.1/" xmlns:cc="http://creativecommons.org/ns#" xmlns:rdf="http://www.w3.org/1999/02/22-rdf-syntax-ns#">
   <cc:Work>
    <dc:type rdf:resource="http://purl.org/dc/dcmitype/StillImage"/>
    <dc:date>2026-04-23T21:20:20.324970</dc:date>
    <dc:format>image/svg+xml</dc:format>
    <dc:creator>
     <cc:Agent>
      <dc:title>Matplotlib v3.10.6, https://matplotlib.org/</dc:title>
     </cc:Agent>
    </dc:creator>
   </cc:Work>
  </rdf:RDF>
 </metadata>
 <defs>
  <style type="text/css">*{stroke-linejoin: round; stroke-linecap: butt}</style>
 </defs>
 <g id="figure_1">
  <g id="patch_1">
   <path d="M 0 531.367125 
L 1012.467812 531.367125 
L 1012.467812 0 
L 0 0 
z
" style="fill: #f4efe6"/>
  </g>
  <g id="axes_1">
   <g id="patch_2">
    <path d="M 37.587813 491.004375 
L 1005.267812 491.004375 
L 1005.267812 63.324375 
L 37.587813 63.324375 
z
" style="fill: #fbf7ee"/>
   </g>
   <g id="matplotlib.axis_1">
    <g id="xtick_1">
     <g id="line2d_1"/>
     <g id="text_1">
      <!-- 04-20 -->
      <g style="fill: #4b433c" transform="translate(101.179354 505.474375) scale(0.16 -0.16)">
       <defs>
        <path id="WenQuanYiZenHei-30" d="M 3581 2175 
Q 3581 1288 3169 638 
Q 2713 -63 1938 -63 
Q 1025 -63 563 831 
Q 256 1425 256 2188 
Q 256 3188 700 3819 
Q 1138 4456 1888 4456 
Q 2863 4456 3306 3500 
Q 3581 2925 3581 2175 
z
M 3019 2100 
Q 3019 3356 2500 3806 
L 2350 3919 
Q 2144 4031 1888 4031 
Q 1100 4031 888 2956 
Q 819 2625 819 2225 
Q 819 1013 1338 569 
Q 1588 356 1938 356 
Q 2675 356 2925 1294 
Q 3019 1663 3019 2100 
z
" transform="scale(0.015625)"/>
        <path id="WenQuanYiZenHei-34" d="M 3631 1025 
L 2913 1025 
L 2913 0 
L 2381 0 
L 2381 1025 
L 219 1025 
L 219 1388 
L 2225 4388 
L 2913 4388 
L 2913 1444 
L 3631 1444 
L 3631 1025 
z
M 2381 1444 
L 2381 3963 
L 788 1444 
L 2381 1444 
z
" transform="scale(0.015625)"/>
        <path id="WenQuanYiZenHei-2d" d="M 1363 1444 
L 0 1444 
L 0 1844 
L 1363 1844 
L 1363 1444 
z
" transform="scale(0.015625)"/>
        <path id="WenQuanYiZenHei-32" d="M 3488 0 
L 369 0 
L 369 456 
L 2150 1850 
Q 2931 2463 2931 3144 
Q 2931 3619 2488 3863 
Q 2231 4013 1931 4013 
Q 1425 4013 1113 3619 
Q 894 3356 881 3013 
L 369 3169 
Q 531 3981 1213 4300 
Q 1544 4456 1950 4456 
Q 2631 4456 3088 4044 
L 3225 3888 
L 3350 3706 
Q 3481 3444 3481 3144 
Q 3481 2313 2519 1569 
L 1069 456 
L 3488 456 
L 3488 0 
z
" transform="scale(0.015625)"/>
       </defs>
       <use xlink:href="#WenQuanYiZenHei-30"/>
       <use xlink:href="#WenQuanYiZenHei-34" transform="translate(59.960938 0)"/>
       <use xlink:href="#WenQuanYiZenHei-2d" transform="translate(119.921875 0)"/>
       <use xlink:href="#WenQuanYiZenHei-32" transform="translate(149.902344 0)"/>
       <use xlink:href="#WenQuanYiZenHei-30" transform="translate(209.863281 0)"/>
      </g>
     </g>
    </g>
    <g id="xtick_2">
     <g id="line2d_2"/>
     <g id="text_2">
      <!-- 04-21 -->
      <g style="fill: #4b433c" transform="translate(234.065923 505.474375) scale(0.16 -0.16)">
       <defs>
        <path id="WenQuanYiZenHei-31" d="M 3556 0 
L 488 0 
L 488 406 
L 1800 406 
L 1800 3725 
Q 1231 3125 588 2788 
L 588 3338 
Q 1456 3781 1931 4388 
L 2331 4388 
L 2331 406 
L 3556 406 
L 3556 0 
z
" transform="scale(0.015625)"/>
       </defs>
       <use xlink:href="#WenQuanYiZenHei-30"/>
       <use xlink:href="#WenQuanYiZenHei-34" transform="translate(59.960938 0)"/>
       <use xlink:href="#WenQuanYiZenHei-2d" transform="translate(119.921875 0)"/>
       <use xlink:href="#WenQuanYiZenHei-32" transform="translate(149.902344 0)"/>
       <use xlink:href="#WenQuanYiZenHei-31" transform="translate(209.863281 0)"/>
      </g>
     </g>
    </g>
    <g id="xtick_3">
     <g id="line2d_3"/>
     <g id="text_3">
      <!-- 04-22 -->
      <g style="fill: #4b433c" transform="translate(366.952493 505.474375) scale(0.16 -0.16)">
       <use xlink:href="#WenQuanYiZenHei-30"/>
       <use xlink:href="#WenQuanYiZenHei-34" transform="translate(59.960938 0)"/>
       <use xlink:href="#WenQuanYiZenHei-2d" transform="translate(119.921875 0)"/>
       <use xlink:href="#WenQuanYiZenHei-32" transform="translate(149.902344 0)"/>
       <use xlink:href="#WenQuanYiZenHei-32" transform="translate(209.863281 0)"/>
      </g>
     </g>
    </g>
    <g id="xtick_4">
     <g id="line2d_4"/>
     <g id="text_4">
      <!-- 04-23 -->
      <g style="fill: #4b433c" transform="translate(499.839062 505.474375) scale(0.16 -0.16)">
       <defs>
        <path id="WenQuanYiZenHei-33" d="M 3588 1231 
Q 3588 494 2875 144 
Q 2450 -63 1925 -63 
Q 1044 -63 556 488 
Q 356 706 256 1000 
L 769 1169 
Q 994 375 1913 375 
Q 2631 375 2900 788 
Q 3019 975 3019 1231 
Q 3019 1638 2638 1881 
Q 2325 2081 1613 2069 
L 1338 2069 
L 1338 2494 
Q 1969 2494 2094 2506 
Q 2325 2544 2463 2613 
Q 2763 2756 2844 3100 
Q 2863 3169 2863 3244 
Q 2863 3744 2381 3944 
L 2163 4006 
Q 2056 4025 1931 4025 
Q 1388 4025 1075 3631 
Q 969 3488 906 3313 
L 419 3456 
Q 675 4150 1400 4369 
Q 1669 4456 1975 4456 
Q 2694 4456 3106 4050 
Q 3419 3744 3419 3275 
Q 3419 2813 3025 2513 
Q 2825 2356 2575 2319 
L 2575 2306 
Q 3181 2213 3450 1769 
Q 3588 1525 3588 1231 
z
" transform="scale(0.015625)"/>
       </defs>
       <use xlink:href="#WenQuanYiZenHei-30"/>
       <use xlink:href="#WenQuanYiZenHei-34" transform="translate(59.960938 0)"/>
       <use xlink:href="#WenQuanYiZenHei-2d" transform="translate(119.921875 0)"/>
       <use xlink:href="#WenQuanYiZenHei-32" transform="translate(149.902344 0)"/>
       <use xlink:href="#WenQuanYiZenHei-33" transform="translate(209.863281 0)"/>
      </g>
     </g>
    </g>
    <g id="xtick_5">
     <g id="line2d_5"/>
     <g id="text_5">
      <!-- 04-24 -->
      <g style="fill: #4b433c" transform="translate(632.725632 505.474375) scale(0.16 -0.16)">
       <use xlink:href="#WenQuanYiZenHei-30"/>
       <use xlink:href="#WenQuanYiZenHei-34" transform="translate(59.960938 0)"/>
       <use xlink:href="#WenQuanYiZenHei-2d" transform="translate(119.921875 0)"/>
       <use xlink:href="#WenQuanYiZenHei-32" transform="translate(149.902344 0)"/>
       <use xlink:href="#WenQuanYiZenHei-34" transform="translate(209.863281 0)"/>
      </g>
     </g>
    </g>
    <g id="xtick_6">
     <g id="line2d_6"/>
     <g id="text_6">
      <!-- 04-25 -->
      <g style="fill: #4b433c" transform="translate(765.612202 505.474375) scale(0.16 -0.16)">
       <defs>
        <path id="WenQuanYiZenHei-35" d="M 3531 1488 
Q 3531 688 2913 250 
Q 2456 -63 1844 -63 
Q 1175 -63 706 350 
Q 413 613 306 975 
L 781 1131 
Q 1000 538 1569 406 
Q 1706 369 1856 369 
Q 2550 369 2850 869 
Q 3000 1131 3000 1494 
Q 3000 2056 2581 2356 
Q 2319 2538 1969 2538 
Q 1400 2538 1031 2075 
Q 981 2013 938 1938 
L 500 2031 
L 644 4388 
L 3244 4388 
L 3200 3919 
L 1044 3919 
L 950 2500 
Q 1431 2975 2006 2975 
Q 2713 2975 3163 2475 
Q 3531 2063 3531 1488 
z
" transform="scale(0.015625)"/>
       </defs>
       <use xlink:href="#WenQuanYiZenHei-30"/>
       <use xlink:href="#WenQuanYiZenHei-34" transform="translate(59.960938 0)"/>
       <use xlink:href="#WenQuanYiZenHei-2d" transform="translate(119.921875 0)"/>
       <use xlink:href="#WenQuanYiZenHei-32" transform="translate(149.902344 0)"/>
       <use xlink:href="#WenQuanYiZenHei-35" transform="translate(209.863281 0)"/>
      </g>
     </g>
    </g>
    <g id="xtick_7">
     <g id="line2d_7"/>
     <g id="text_7">
      <!-- 04-26 -->
      <g style="fill: #4b433c" transform="translate(898.498771 505.474375) scale(0.16 -0.16)">
       <defs>
        <path id="WenQuanYiZenHei-36" d="M 3550 1431 
Q 3550 725 3006 288 
Q 2581 -63 1994 -63 
Q 1013 -63 563 825 
Q 288 1363 288 2081 
Q 288 3294 856 3938 
Q 1319 4456 2075 4456 
Q 2969 4456 3363 3756 
Q 3431 3631 3481 3481 
L 2988 3350 
Q 2750 3994 2075 4006 
Q 1056 4006 844 2669 
Q 794 2356 794 1981 
L 806 1981 
Q 1006 2506 1544 2744 
Q 1819 2869 2119 2869 
Q 2788 2869 3213 2375 
Q 3550 1975 3550 1431 
z
M 3038 1406 
Q 3038 1906 2656 2213 
Q 2381 2431 2038 2431 
Q 1525 2431 1181 2044 
Q 919 1744 919 1356 
Q 919 881 1344 581 
Q 1631 375 1981 375 
Q 2519 375 2838 781 
Q 3038 1050 3038 1406 
z
" transform="scale(0.015625)"/>
       </defs>
       <use xlink:href="#WenQuanYiZenHei-30"/>
       <use xlink:href="#WenQuanYiZenHei-34" transform="translate(59.960938 0)"/>
       <use xlink:href="#WenQuanYiZenHei-2d" transform="translate(119.921875 0)"/>
       <use xlink:href="#WenQuanYiZenHei-32" transform="translate(149.902344 0)"/>
       <use xlink:href="#WenQuanYiZenHei-36" transform="translate(209.863281 0)"/>
      </g>
     </g>
    </g>
   </g>
   <g id="matplotlib.axis_2">
    <g id="ytick_1">
     <g id="line2d_8">
      <path d="M 37.587813 491.004375 
L 1005.267812 491.004375 
" clip-path="url(#p37293da700)" style="fill: none; stroke-dasharray: 4,4; stroke-dashoffset: 0; stroke: #d8d0c2"/>
     </g>
     <g id="line2d_9">
      <defs>
       <path id="m7f655f2ad7" d="M 0 0 
L -3.5 0 
" style="stroke: #7b746a; stroke-width: 0.8"/>
      </defs>
      <g>
       <use xlink:href="#m7f655f2ad7" x="37.587813" y="491.004375" style="fill: #7b746a; stroke: #7b746a; stroke-width: 0.8"/>
      </g>
     </g>
     <g id="text_8">
      <!-- 0 -->
      <g style="fill: #7b746a" transform="translate(22.791875 495.460937) scale(0.13 -0.13)">
       <use xlink:href="#WenQuanYiZenHei-30"/>
      </g>
     </g>
    </g>
    <g id="ytick_2">
     <g id="line2d_10">
      <path d="M 37.587813 408.758221 
L 1005.267812 408.758221 
" clip-path="url(#p37293da700)" style="fill: none; stroke-dasharray: 4,4; stroke-dashoffset: 0; stroke: #d8d0c2"/>
     </g>
     <g id="line2d_11">
      <g>
       <use xlink:href="#m7f655f2ad7" x="37.587813" y="408.758221" style="fill: #7b746a; stroke: #7b746a; stroke-width: 0.8"/>
      </g>
     </g>
     <g id="text_9">
      <!-- 100 -->
      <g style="fill: #7b746a" transform="translate(7.2 413.214784) scale(0.13 -0.13)">
       <use xlink:href="#WenQuanYiZenHei-31"/>
       <use xlink:href="#WenQuanYiZenHei-30" transform="translate(59.960938 0)"/>
       <use xlink:href="#WenQuanYiZenHei-30" transform="translate(119.921875 0)"/>
      </g>
     </g>
    </g>
    <g id="ytick_3">
     <g id="line2d_12">
      <path d="M 37.587813 326.512067 
L 1005.267812 326.512067 
" clip-path="url(#p37293da700)" style="fill: none; stroke-dasharray: 4,4; stroke-dashoffset: 0; stroke: #d8d0c2"/>
     </g>
     <g id="line2d_13">
      <g>
       <use xlink:href="#m7f655f2ad7" x="37.587813" y="326.512067" style="fill: #7b746a; stroke: #7b746a; stroke-width: 0.8"/>
      </g>
     </g>
     <g id="text_10">
      <!-- 200 -->
      <g style="fill: #7b746a" transform="translate(7.2 330.96863) scale(0.13 -0.13)">
       <use xlink:href="#WenQuanYiZenHei-32"/>
       <use xlink:href="#WenQuanYiZenHei-30" transform="translate(59.960938 0)"/>
       <use xlink:href="#WenQuanYiZenHei-30" transform="translate(119.921875 0)"/>
      </g>
     </g>
    </g>
    <g id="ytick_4">
     <g id="line2d_14">
      <path d="M 37.587813 244.265913 
L 1005.267812 244.265913 
" clip-path="url(#p37293da700)" style="fill: none; stroke-dasharray: 4,4; stroke-dashoffset: 0; stroke: #d8d0c2"/>
     </g>
     <g id="line2d_15">
      <g>
       <use xlink:href="#m7f655f2ad7" x="37.587813" y="244.265913" style="fill: #7b746a; stroke: #7b746a; stroke-width: 0.8"/>
      </g>
     </g>
     <g id="text_11">
      <!-- 300 -->
      <g style="fill: #7b746a" transform="translate(7.2 248.722476) scale(0.13 -0.13)">
       <use xlink:href="#WenQuanYiZenHei-33"/>
       <use xlink:href="#WenQuanYiZenHei-30" transform="translate(59.960938 0)"/>
       <use xlink:href="#WenQuanYiZenHei-30" transform="translate(119.921875 0)"/>
      </g>
     </g>
    </g>
    <g id="ytick_5">
     <g id="line2d_16">
      <path d="M 37.587813 162.01976 
L 1005.267812 162.01976 
" clip-path="url(#p37293da700)" style="fill: none; stroke-dasharray: 4,4; stroke-dashoffset: 0; stroke: #d8d0c2"/>
     </g>
     <g id="line2d_17">
      <g>
       <use xlink:href="#m7f655f2ad7" x="37.587813" y="162.01976" style="fill: #7b746a; stroke: #7b746a; stroke-width: 0.8"/>
      </g>
     </g>
     <g id="text_12">
      <!-- 400 -->
      <g style="fill: #7b746a" transform="translate(7.2 166.476322) scale(0.13 -0.13)">
       <use xlink:href="#WenQuanYiZenHei-34"/>
       <use xlink:href="#WenQuanYiZenHei-30" transform="translate(59.960938 0)"/>
       <use xlink:href="#WenQuanYiZenHei-30" transform="translate(119.921875 0)"/>
      </g>
     </g>
    </g>
    <g id="ytick_6">
     <g id="line2d_18">
      <path d="M 37.587813 79.773606 
L 1005.267812 79.773606 
" clip-path="url(#p37293da700)" style="fill: none; stroke-dasharray: 4,4; stroke-dashoffset: 0; stroke: #d8d0c2"/>
     </g>
     <g id="line2d_19">
      <g>
       <use xlink:href="#m7f655f2ad7" x="37.587813" y="79.773606" style="fill: #7b746a; stroke: #7b746a; stroke-width: 0.8"/>
      </g>
     </g>
     <g id="text_13">
      <!-- 500 -->
      <g style="fill: #7b746a" transform="translate(7.2 84.230168) scale(0.13 -0.13)">
       <use xlink:href="#WenQuanYiZenHei-35"/>
       <use xlink:href="#WenQuanYiZenHei-30" transform="translate(59.960938 0)"/>
       <use xlink:href="#WenQuanYiZenHei-30" transform="translate(119.921875 0)"/>
      </g>
     </g>
    </g>
   </g>
   <g id="patch_3">
    <path d="M 81.573267 491.004375 
L 163.96294 491.004375 
L 163.96294 200.675452 
L 81.573267 200.675452 
z
" clip-path="url(#p37293da700)" style="fill: #d7cfc1; stroke: #b7ad9b; stroke-width: 1.2; stroke-linejoin: miter"/>
   </g>
   <g id="patch_4">
    <path d="M 214.459837 491.004375 
L 296.84951 491.004375 
L 296.84951 219.592067 
L 214.459837 219.592067 
z
" clip-path="url(#p37293da700)" style="fill: #d7cfc1; stroke: #b7ad9b; stroke-width: 1.2; stroke-linejoin: miter"/>
   </g>
   <g id="patch_5">
    <path d="M 347.346406 491.004375 
L 429.736079 491.004375 
L 429.736079 221.23699 
L 347.346406 221.23699 
z
" clip-path="url(#p37293da700)" style="fill: #d7cfc1; stroke: #b7ad9b; stroke-width: 1.2; stroke-linejoin: miter"/>
   </g>
   <g id="patch_6">
    <path d="M 480.232976 491.004375 
L 562.622649 491.004375 
L 562.622649 231.92899 
L 480.232976 231.92899 
z
" clip-path="url(#p37293da700)" style="fill: #d7cfc1; stroke: #b7ad9b; stroke-width: 1.2; stroke-linejoin: miter"/>
   </g>
   <g id="patch_7">
    <path d="M 613.119546 491.004375 
L 695.509219 491.004375 
L 695.509219 217.947144 
L 613.119546 217.947144 
z
" clip-path="url(#p37293da700)" style="fill: #d7cfc1; stroke: #b7ad9b; stroke-width: 1.2; stroke-linejoin: miter"/>
   </g>
   <g id="patch_8">
    <path d="M 746.006115 491.004375 
L 828.395788 491.004375 
L 828.395788 287.856375 
L 746.006115 287.856375 
z
" clip-path="url(#p37293da700)" style="fill: #d7cfc1; stroke: #b7ad9b; stroke-width: 1.2; stroke-linejoin: miter"/>
   </g>
   <g id="patch_9">
    <path d="M 878.892685 491.004375 
L 961.282358 491.004375 
L 961.282358 312.530221 
L 878.892685 312.530221 
z
" clip-path="url(#p37293da700)" style="fill: #d7cfc1; stroke: #b7ad9b; stroke-width: 1.2; stroke-linejoin: miter"/>
   </g>
   <g id="text_14">
    <!-- 472 -->
    <g style="fill: #4b433c" transform="translate(111.074197 92.418695) scale(0.13 -0.13)">
     <defs>
      <path id="WenQuanYiZenHei-37" d="M 3400 4056 
Q 1838 2175 1838 0 
L 1275 0 
Q 1269 1438 2056 2825 
Q 2381 3400 2825 3913 
L 444 3913 
L 500 4388 
L 3400 4388 
L 3400 4056 
z
" transform="scale(0.015625)"/>
     </defs>
     <use xlink:href="#WenQuanYiZenHei-34"/>
     <use xlink:href="#WenQuanYiZenHei-37" transform="translate(59.960938 0)"/>
     <use xlink:href="#WenQuanYiZenHei-32" transform="translate(119.921875 0)"/>
    </g>
   </g>
   <g id="text_15">
    <!-- 周一 -->
    <g style="fill: #7b746a" transform="translate(110.768104 521.317125) scale(0.12 -0.12)">
     <defs>
      <path id="WenQuanYiZenHei-5468" d="M 2656 294 
L 2213 294 
L 2213 2206 
L 4350 2200 
L 4350 294 
L 3913 294 
L 3913 694 
L 2656 694 
L 2656 294 
z
M 5000 2969 
Q 4981 2788 5000 2606 
Q 4663 2625 4331 2625 
L 2331 2625 
Q 1994 2625 1663 2606 
Q 1681 2788 1663 2969 
Q 1994 2956 2331 2956 
L 3056 2956 
L 3056 3594 
L 2563 3594 
Q 2225 3594 1888 3581 
Q 1906 3763 1888 3944 
Q 2225 3925 2563 3925 
L 3056 3925 
Q 3050 4238 3038 4544 
Q 3275 4519 3519 4544 
Q 3500 4238 3500 3925 
L 4113 3925 
Q 4450 3925 4788 3944 
Q 4769 3763 4788 3581 
Q 4450 3594 4113 3594 
L 3494 3594 
L 3494 2956 
L 4331 2956 
Q 4663 2956 5000 2969 
z
M 5319 119 
L 5319 4669 
L 1425 4669 
L 1431 1225 
Q 1431 -100 569 -688 
Q 444 -456 194 -363 
Q 994 13 988 1219 
L 981 5000 
L 5763 5000 
L 5763 -56 
Q 5763 -500 5500 -663 
Q 5225 -825 4625 -819 
Q 4694 -513 4475 -288 
Q 4675 -306 4928 -309 
Q 5181 -313 5250 -256 
Q 5319 -200 5319 119 
z
M 3913 1869 
L 2656 1869 
L 2656 1025 
L 3913 1025 
L 3913 1869 
z
" transform="scale(0.015625)"/>
      <path id="WenQuanYiZenHei-4e00" d="M 6019 2719 
Q 5988 2463 6019 2206 
Q 5544 2231 5075 2231 
L 1238 2231 
Q 769 2231 294 2206 
Q 325 2463 294 2719 
Q 769 2694 1238 2694 
L 5075 2694 
Q 5544 2694 6019 2719 
z
" transform="scale(0.015625)"/>
     </defs>
     <use xlink:href="#WenQuanYiZenHei-5468"/>
     <use xlink:href="#WenQuanYiZenHei-4e00" transform="translate(100 0)"/>
    </g>
   </g>
   <g id="text_16">
    <!-- 438 -->
    <g style="fill: #4b433c" transform="translate(243.960767 120.382387) scale(0.13 -0.13)">
     <defs>
      <path id="WenQuanYiZenHei-38" d="M 3619 1175 
Q 3619 431 2850 100 
Q 2444 -63 1944 -63 
Q 1231 -63 725 269 
Q 225 594 225 1125 
Q 225 1881 1269 2281 
Q 719 2481 519 2938 
Q 444 3119 444 3319 
Q 444 4000 1144 4294 
Q 1519 4456 1963 4456 
Q 2669 4456 3094 4094 
Q 3425 3813 3425 3369 
Q 3425 2638 2575 2356 
Q 3231 2056 3450 1725 
Q 3619 1488 3619 1175 
z
M 2944 3344 
Q 2944 3906 2288 4019 
Q 2138 4044 1969 4044 
Q 1438 4044 1163 3775 
Q 1000 3613 1000 3375 
Q 1000 2925 1594 2663 
Q 1756 2588 1931 2550 
Q 2581 2725 2788 2956 
Q 2944 3125 2944 3344 
z
M 3075 1094 
Q 3075 1738 1875 2050 
Q 1094 1881 850 1463 
Q 763 1313 763 1131 
Q 763 569 1456 406 
Q 1681 344 1944 344 
Q 2519 344 2850 619 
Q 3075 813 3075 1094 
z
" transform="scale(0.015625)"/>
     </defs>
     <use xlink:href="#WenQuanYiZenHei-34"/>
     <use xlink:href="#WenQuanYiZenHei-33" transform="translate(59.960938 0)"/>
     <use xlink:href="#WenQuanYiZenHei-38" transform="translate(119.921875 0)"/>
    </g>
   </g>
   <g id="text_17">
    <!-- 周二 -->
    <g style="fill: #7b746a" transform="translate(243.654673 521.317125) scale(0.12 -0.12)">
     <defs>
      <path id="WenQuanYiZenHei-4e8c" d="M 6044 400 
Q 6025 175 6044 -56 
Q 5625 -31 5206 -31 
L 1000 -31 
Q 575 -31 156 -56 
Q 181 175 156 400 
Q 575 381 1000 381 
L 5206 381 
Q 5625 381 6044 400 
z
M 5419 4394 
Q 5394 4163 5419 3938 
Q 4994 3956 4575 3956 
L 1781 3956 
Q 1356 3956 938 3938 
Q 963 4163 938 4394 
Q 1356 4369 1781 4369 
L 4575 4369 
Q 4994 4369 5419 4394 
z
" transform="scale(0.015625)"/>
     </defs>
     <use xlink:href="#WenQuanYiZenHei-5468"/>
     <use xlink:href="#WenQuanYiZenHei-4e8c" transform="translate(100 0)"/>
    </g>
   </g>
   <g id="text_18">
    <!-- 396 -->
    <g style="fill: #4b433c" transform="translate(376.847337 154.925772) scale(0.13 -0.13)">
     <defs>
      <path id="WenQuanYiZenHei-39" d="M 3544 2300 
Q 3544 1163 3019 513 
Q 2563 -63 1775 -63 
Q 956 -63 563 488 
Q 463 631 394 813 
L 838 975 
Q 1025 494 1550 388 
Q 1656 369 1775 369 
Q 2594 369 2900 1325 
Q 3044 1769 3038 2313 
L 3025 2313 
Q 2675 1638 1944 1544 
Q 1844 1531 1744 1531 
Q 1050 1531 625 2031 
Q 294 2419 294 2963 
Q 294 3656 813 4094 
Q 1238 4456 1819 4456 
Q 2988 4456 3381 3363 
Q 3544 2900 3544 2300 
z
M 2925 2994 
Q 2925 3563 2469 3844 
Q 2206 4006 1863 4006 
Q 1275 4006 988 3563 
Q 844 3344 825 3056 
Q 819 3006 819 2956 
Q 819 2413 1269 2131 
Q 1538 1963 1875 1963 
Q 2363 1963 2681 2350 
Q 2925 2638 2925 2994 
z
" transform="scale(0.015625)"/>
     </defs>
     <use xlink:href="#WenQuanYiZenHei-33"/>
     <use xlink:href="#WenQuanYiZenHei-39" transform="translate(59.960938 0)"/>
     <use xlink:href="#WenQuanYiZenHei-36" transform="translate(119.921875 0)"/>
    </g>
   </g>
   <g id="text_19">
    <!-- 周三 -->
    <g style="fill: #7b746a" transform="translate(376.541243 521.317125) scale(0.12 -0.12)">
     <defs>
      <path id="WenQuanYiZenHei-4e09" d="M 6013 144 
Q 5994 -81 6013 -313 
Q 5594 -288 5175 -288 
L 1044 -288 
Q 625 -288 206 -313 
Q 225 -81 206 144 
Q 625 125 1044 125 
L 5175 125 
Q 5594 125 6013 144 
z
M 5044 2575 
Q 5019 2344 5044 2119 
Q 4625 2138 4206 2138 
L 1906 2138 
Q 1488 2138 1069 2119 
Q 1094 2344 1069 2575 
Q 1488 2550 1906 2550 
L 4206 2550 
Q 4625 2550 5044 2575 
z
M 5744 4788 
Q 5719 4556 5744 4331 
Q 5319 4350 4900 4350 
L 1394 4350 
Q 975 4350 550 4331 
Q 575 4556 550 4788 
Q 975 4763 1394 4763 
L 4900 4763 
Q 5319 4763 5744 4788 
z
" transform="scale(0.015625)"/>
     </defs>
     <use xlink:href="#WenQuanYiZenHei-5468"/>
     <use xlink:href="#WenQuanYiZenHei-4e09" transform="translate(100 0)"/>
    </g>
   </g>
   <g id="text_20">
    <!-- 371 -->
    <g style="fill: #4b433c" transform="translate(509.733906 175.48731) scale(0.13 -0.13)">
     <use xlink:href="#WenQuanYiZenHei-33"/>
     <use xlink:href="#WenQuanYiZenHei-37" transform="translate(59.960938 0)"/>
     <use xlink:href="#WenQuanYiZenHei-31" transform="translate(119.921875 0)"/>
    </g>
   </g>
   <g id="text_21">
    <!-- 周四 -->
    <g style="fill: #7b746a" transform="translate(509.427812 521.317125) scale(0.12 -0.12)">
     <defs>
      <path id="WenQuanYiZenHei-56db" d="M 781 4781 
L 5775 4781 
L 5775 -763 
L 5325 -763 
L 5325 -31 
L 1244 -31 
Q 1244 -406 1263 -775 
Q 1013 -750 769 -775 
Q 788 -319 788 138 
L 781 4781 
z
M 3506 4419 
L 2756 4419 
L 2756 2556 
Q 2756 1950 2359 1465 
Q 1963 981 1381 800 
Q 1344 963 1238 1094 
L 1238 325 
L 5325 325 
L 5325 1244 
L 4169 1244 
Q 3894 1244 3700 1437 
Q 3506 1631 3506 1913 
L 3506 4419 
z
M 3956 4419 
L 3956 1913 
Q 3956 1788 4015 1694 
Q 4075 1600 4175 1600 
L 5325 1600 
L 5325 4419 
L 3956 4419 
z
M 2306 4419 
L 1231 4419 
L 1238 1256 
Q 1694 1369 2000 1731 
Q 2306 2094 2306 2556 
L 2306 4419 
z
" transform="scale(0.015625)"/>
     </defs>
     <use xlink:href="#WenQuanYiZenHei-5468"/>
     <use xlink:href="#WenQuanYiZenHei-56db" transform="translate(100 0)"/>
    </g>
   </g>
   <g id="text_22">
    <!-- 429 -->
    <g style="fill: #4b433c" transform="translate(642.620476 127.784541) scale(0.13 -0.13)">
     <use xlink:href="#WenQuanYiZenHei-34"/>
     <use xlink:href="#WenQuanYiZenHei-32" transform="translate(59.960938 0)"/>
     <use xlink:href="#WenQuanYiZenHei-39" transform="translate(119.921875 0)"/>
    </g>
   </g>
   <g id="text_23">
    <!-- 周五 -->
    <g style="fill: #7b746a" transform="translate(642.314382 521.317125) scale(0.12 -0.12)">
     <defs>
      <path id="WenQuanYiZenHei-4e94" d="M 6138 75 
Q 6113 -144 6138 -356 
Q 5738 -338 5338 -338 
L 913 -338 
Q 513 -338 113 -356 
Q 138 -144 113 75 
Q 513 56 913 56 
L 1919 56 
L 2281 2606 
L 1800 2606 
Q 1400 2606 1000 2588 
Q 1025 2806 1000 3019 
Q 1400 3000 1800 3000 
L 2331 3000 
L 2538 4475 
L 1175 4475 
Q 775 4475 375 4456 
Q 394 4669 375 4888 
Q 775 4869 1175 4869 
L 5075 4869 
Q 5475 4869 5875 4888 
Q 5856 4669 5875 4456 
Q 5475 4475 5075 4475 
L 3013 4475 
L 2806 3000 
L 4581 3000 
L 4581 56 
L 5338 56 
Q 5738 56 6138 75 
z
M 4119 56 
L 4119 2606 
L 2750 2606 
L 2394 56 
L 4119 56 
z
" transform="scale(0.015625)"/>
     </defs>
     <use xlink:href="#WenQuanYiZenHei-5468"/>
     <use xlink:href="#WenQuanYiZenHei-4e94" transform="translate(100 0)"/>
    </g>
   </g>
   <g id="text_24">
    <!-- 263 -->
    <g style="fill: #4b433c" transform="translate(775.507045 264.313156) scale(0.13 -0.13)">
     <use xlink:href="#WenQuanYiZenHei-32"/>
     <use xlink:href="#WenQuanYiZenHei-36" transform="translate(59.960938 0)"/>
     <use xlink:href="#WenQuanYiZenHei-33" transform="translate(119.921875 0)"/>
    </g>
   </g>
   <g id="text_25">
    <!-- 周六 -->
    <g style="fill: #7b746a" transform="translate(775.200952 522.174) scale(0.12 -0.12)">
     <defs>
      <path id="WenQuanYiZenHei-516d" d="M 6138 -619 
L 5700 -888 
L 4638 744 
L 3538 2338 
L 3956 2638 
L 5063 1025 
L 6138 -619 
z
M 2188 2769 
Q 2450 2669 2731 2625 
Q 2231 1119 1288 -31 
Q 913 -488 475 -838 
Q 325 -588 56 -481 
Q 769 56 1275 719 
Q 1681 1256 1938 2019 
Q 2113 2475 2188 2769 
z
M 6138 3675 
Q 6113 3456 6138 3238 
Q 5738 3256 5338 3256 
L 1163 3256 
Q 763 3256 363 3238 
Q 381 3456 363 3675 
Q 763 3656 1163 3656 
L 5338 3656 
Q 5738 3656 6138 3675 
z
M 3138 3850 
Q 2794 4500 2363 5100 
L 2781 5394 
Q 3231 4769 3594 4094 
L 3138 3850 
z
" transform="scale(0.015625)"/>
     </defs>
     <use xlink:href="#WenQuanYiZenHei-5468"/>
     <use xlink:href="#WenQuanYiZenHei-516d" transform="translate(100 0)"/>
    </g>
   </g>
   <g id="text_26">
    <!-- 227 -->
    <g style="fill: #4b433c" transform="translate(908.393615 293.921772) scale(0.13 -0.13)">
     <use xlink:href="#WenQuanYiZenHei-32"/>
     <use xlink:href="#WenQuanYiZenHei-32" transform="translate(59.960938 0)"/>
     <use xlink:href="#WenQuanYiZenHei-37" transform="translate(119.921875 0)"/>
    </g>
   </g>
   <g id="text_27">
    <!-- 周日 -->
    <g style="fill: #7b746a" transform="translate(908.087521 521.317125) scale(0.12 -0.12)">
     <defs>
      <path id="WenQuanYiZenHei-65e5" d="M 1494 -775 
Q 1244 -750 988 -775 
Q 1013 -313 1013 156 
L 1013 4875 
L 5269 4875 
L 5269 -763 
L 4813 -763 
L 4813 156 
L 1469 156 
Q 1469 -313 1494 -775 
z
M 4813 2700 
L 4813 4500 
L 1469 4500 
L 1469 2700 
L 4813 2700 
z
M 4813 531 
L 4813 2325 
L 1469 2325 
L 1469 531 
L 4813 531 
z
" transform="scale(0.015625)"/>
     </defs>
     <use xlink:href="#WenQuanYiZenHei-5468"/>
     <use xlink:href="#WenQuanYiZenHei-65e5" transform="translate(100 0)"/>
    </g>
   </g>
   <g id="patch_10">
    <path d="M 81.573267 200.675452 
L 163.96294 200.675452 
L 163.96294 102.802529 
L 81.573267 102.802529 
z
" clip-path="url(#p37293da700)" style="fill: #ff6a4d; stroke: #e5573c; stroke-width: 1.2; stroke-linejoin: miter"/>
   </g>
   <g id="patch_11">
    <path d="M 214.459837 219.592067 
L 296.84951 219.592067 
L 296.84951 130.766221 
L 214.459837 130.766221 
z
" clip-path="url(#p37293da700)" style="fill: #ff6a4d; stroke: #e5573c; stroke-width: 1.2; stroke-linejoin: miter"/>
   </g>
   <g id="patch_12">
    <path d="M 347.346406 221.23699 
L 429.736079 221.23699 
L 429.736079 165.309606 
L 347.346406 165.309606 
z
" clip-path="url(#p37293da700)" style="fill: #ff6a4d; stroke: #e5573c; stroke-width: 1.2; stroke-linejoin: miter"/>
   </g>
   <g id="patch_13">
    <path d="M 480.232976 231.92899 
L 562.622649 231.92899 
L 562.622649 185.871144 
L 480.232976 185.871144 
z
" clip-path="url(#p37293da700)" style="fill: #ff6a4d; stroke: #e5573c; stroke-width: 1.2; stroke-linejoin: miter"/>
   </g>
   <g id="patch_14">
    <path d="M 613.119546 217.947144 
L 695.509219 217.947144 
L 695.509219 138.168375 
L 613.119546 138.168375 
z
" clip-path="url(#p37293da700)" style="fill: #ff6a4d; stroke: #e5573c; stroke-width: 1.2; stroke-linejoin: miter"/>
   </g>
   <g id="patch_15">
    <path d="M 746.006115 287.856375 
L 828.395788 287.856375 
L 828.395788 274.69699 
L 746.006115 274.69699 
z
" clip-path="url(#p37293da700)" style="fill: #ff6a4d; stroke: #e5573c; stroke-width: 1.2; stroke-linejoin: miter"/>
   </g>
   <g id="patch_16">
    <path d="M 878.892685 312.530221 
L 961.282358 312.530221 
L 961.282358 304.305606 
L 878.892685 304.305606 
z
" clip-path="url(#p37293da700)" style="fill: #ff6a4d; stroke: #e5573c; stroke-width: 1.2; stroke-linejoin: miter"/>
   </g>
   <g id="text_28">
    <!-- 25.2% -->
    <g style="fill: #fff7ed" transform="translate(104.580291 155.115944) scale(0.13 -0.13)">
     <defs>
      <path id="WenQuanYiZenHei-2e" d="M 1344 0 
L 631 0 
L 631 725 
L 1344 725 
L 1344 0 
z
" transform="scale(0.015625)"/>
      <path id="WenQuanYiZenHei-25" d="M 4313 1075 
Q 4313 469 3963 150 
L 3819 38 
Q 3713 -19 3594 -44 
L 3406 -63 
Q 2850 -63 2613 488 
Q 2494 756 2494 1075 
Q 2494 1719 2863 2038 
Q 3081 2219 3394 2219 
Q 3969 2219 4206 1650 
Q 4313 1394 4313 1075 
z
M 3394 1894 
Q 2888 1894 2888 1075 
Q 2888 388 3263 281 
Q 3325 263 3406 263 
Q 3825 263 3913 831 
Q 3925 938 3925 1044 
Q 3925 1894 3394 1894 
z
M 3800 4388 
L 1144 0 
L 681 0 
L 3338 4388 
L 3800 4388 
z
M 1981 3306 
Q 1981 2700 1631 2381 
Q 1406 2169 1075 2169 
Q 519 2169 281 2719 
Q 169 2988 169 3306 
Q 169 3956 531 4269 
Q 750 4456 1063 4456 
Q 1638 4456 1875 3888 
Q 1981 3631 1981 3306 
z
M 1063 4125 
Q 556 4125 556 3306 
Q 556 2625 938 2513 
Q 1000 2494 1075 2494 
Q 1500 2494 1581 3063 
Q 1594 3169 1594 3275 
Q 1594 4125 1063 4125 
z
" transform="scale(0.015625)"/>
     </defs>
     <use xlink:href="#WenQuanYiZenHei-32"/>
     <use xlink:href="#WenQuanYiZenHei-35" transform="translate(59.960938 0)"/>
     <use xlink:href="#WenQuanYiZenHei-2e" transform="translate(119.921875 0)"/>
     <use xlink:href="#WenQuanYiZenHei-32" transform="translate(149.902344 0)"/>
     <use xlink:href="#WenQuanYiZenHei-25" transform="translate(209.863281 0)"/>
    </g>
   </g>
   <g id="text_29">
    <!-- 24.7% -->
    <g style="fill: #fff7ed" transform="translate(237.466861 178.556097) scale(0.13 -0.13)">
     <use xlink:href="#WenQuanYiZenHei-32"/>
     <use xlink:href="#WenQuanYiZenHei-34" transform="translate(59.960938 0)"/>
     <use xlink:href="#WenQuanYiZenHei-2e" transform="translate(119.921875 0)"/>
     <use xlink:href="#WenQuanYiZenHei-37" transform="translate(149.902344 0)"/>
     <use xlink:href="#WenQuanYiZenHei-25" transform="translate(209.863281 0)"/>
    </g>
   </g>
   <g id="text_30">
    <!-- 17.2% -->
    <g style="fill: #fff7ed" transform="translate(370.35343 196.650251) scale(0.13 -0.13)">
     <use xlink:href="#WenQuanYiZenHei-31"/>
     <use xlink:href="#WenQuanYiZenHei-37" transform="translate(59.960938 0)"/>
     <use xlink:href="#WenQuanYiZenHei-2e" transform="translate(119.921875 0)"/>
     <use xlink:href="#WenQuanYiZenHei-32" transform="translate(149.902344 0)"/>
     <use xlink:href="#WenQuanYiZenHei-25" transform="translate(209.863281 0)"/>
    </g>
   </g>
   <g id="text_31">
    <!-- 15.1% -->
    <g style="fill: #fff7ed" transform="translate(503.24 212.27702) scale(0.13 -0.13)">
     <use xlink:href="#WenQuanYiZenHei-31"/>
     <use xlink:href="#WenQuanYiZenHei-35" transform="translate(59.960938 0)"/>
     <use xlink:href="#WenQuanYiZenHei-2e" transform="translate(119.921875 0)"/>
     <use xlink:href="#WenQuanYiZenHei-31" transform="translate(149.902344 0)"/>
     <use xlink:href="#WenQuanYiZenHei-25" transform="translate(209.863281 0)"/>
    </g>
   </g>
   <g id="text_32">
    <!-- 22.6% -->
    <g style="fill: #fff7ed" transform="translate(636.12657 181.434713) scale(0.13 -0.13)">
     <use xlink:href="#WenQuanYiZenHei-32"/>
     <use xlink:href="#WenQuanYiZenHei-32" transform="translate(59.960938 0)"/>
     <use xlink:href="#WenQuanYiZenHei-2e" transform="translate(119.921875 0)"/>
     <use xlink:href="#WenQuanYiZenHei-36" transform="translate(149.902344 0)"/>
     <use xlink:href="#WenQuanYiZenHei-25" transform="translate(209.863281 0)"/>
    </g>
   </g>
   <g id="text_33">
    <!-- 6.1% -->
    <g style="fill: #fff7ed" transform="translate(772.911108 284.653636) scale(0.13 -0.13)">
     <use xlink:href="#WenQuanYiZenHei-36"/>
     <use xlink:href="#WenQuanYiZenHei-2e" transform="translate(59.960938 0)"/>
     <use xlink:href="#WenQuanYiZenHei-31" transform="translate(89.941406 0)"/>
     <use xlink:href="#WenQuanYiZenHei-25" transform="translate(149.902344 0)"/>
    </g>
   </g>
   <g id="text_34">
    <!-- 4.4% -->
    <g style="fill: #fff7ed" transform="translate(905.797678 311.794867) scale(0.13 -0.13)">
     <use xlink:href="#WenQuanYiZenHei-34"/>
     <use xlink:href="#WenQuanYiZenHei-2e" transform="translate(59.960938 0)"/>
     <use xlink:href="#WenQuanYiZenHei-34" transform="translate(89.941406 0)"/>
     <use xlink:href="#WenQuanYiZenHei-25" transform="translate(149.902344 0)"/>
    </g>
   </g>
   <g id="legend_1">
    <g id="patch_17">
     <path d="M 875.052612 132.789575 
L 981.652612 132.789575 
Q 984.252612 132.789575 984.252612 130.189575 
L 984.252612 78.839575 
Q 984.252612 76.239575 981.652612 76.239575 
L 875.052612 76.239575 
Q 872.452612 76.239575 872.452612 78.839575 
L 872.452612 130.189575 
Q 872.452612 132.789575 875.052612 132.789575 
z
" style="fill: #fbf7ee; opacity: 0.92; stroke: #d7cfc1; stroke-linejoin: miter"/>
    </g>
    <g id="patch_18">
     <path d="M 882.852612 96.986762 
L 901.052612 96.986762 
L 901.052612 87.886762 
L 882.852612 87.886762 
z
" style="fill: #d7cfc1; stroke: #b7ad9b; stroke-width: 1.2; stroke-linejoin: miter"/>
    </g>
    <g id="text_35">
     <!-- 非工具相关 -->
     <g style="fill: #4b433c" transform="translate(908.852612 96.986762) scale(0.13 -0.13)">
      <defs>
       <path id="NotoSansCJKjp-Regular-975e" d="M 3693 5344 
L 3693 -512 
L 4173 -512 
L 4173 1043 
L 6131 1043 
L 6131 1498 
L 4173 1498 
L 4173 2522 
L 5888 2522 
L 5888 2963 
L 4173 2963 
L 4173 3949 
L 6022 3949 
L 6022 4403 
L 4173 4403 
L 4173 5344 
L 3693 5344 
z
M 2163 5344 
L 2163 4403 
L 493 4403 
L 493 3949 
L 2163 3949 
L 2163 2963 
L 563 2963 
L 563 2522 
L 2163 2522 
L 2163 2355 
C 2163 2163 2144 1914 2086 1651 
C 1382 1536 730 1434 256 1363 
L 352 890 
L 1933 1178 
C 1709 653 1286 122 493 -218 
C 602 -314 762 -467 838 -582 
C 1811 -122 2272 602 2477 1274 
L 3155 1402 
L 3136 1830 
L 2579 1734 
C 2618 1958 2630 2170 2630 2355 
L 2630 5344 
L 2163 5344 
z
" transform="scale(0.015625)"/>
       <path id="NotoSansCJKjp-Regular-5de5" d="M 333 461 
L 333 -19 
L 6086 -19 
L 6086 461 
L 3450 461 
L 3450 4160 
L 5760 4160 
L 5760 4653 
L 666 4653 
L 666 4160 
L 2918 4160 
L 2918 461 
L 333 461 
z
" transform="scale(0.015625)"/>
       <path id="NotoSansCJKjp-Regular-5177" d="M 1754 3757 
L 4691 3757 
L 4691 3149 
L 1754 3149 
L 1754 3757 
z
M 1754 2784 
L 4691 2784 
L 4691 2163 
L 1754 2163 
L 1754 2784 
z
M 1754 4723 
L 4691 4723 
L 4691 4122 
L 1754 4122 
L 1754 4723 
z
M 1286 5107 
L 1286 1786 
L 5184 1786 
L 5184 5107 
L 1286 5107 
z
M 365 1344 
L 365 896 
L 6048 896 
L 6048 1344 
L 365 1344 
z
M 3738 371 
C 4461 102 5210 -250 5651 -512 
L 6112 -179 
C 5619 83 4819 429 4083 691 
L 3738 371 
z
M 2246 723 
C 1818 422 986 64 326 -134 
C 435 -237 589 -410 659 -506 
C 1312 -294 2144 64 2688 410 
L 2246 723 
z
" transform="scale(0.015625)"/>
       <path id="NotoSansCJKjp-Regular-76f8" d="M 3494 3034 
L 5440 3034 
L 5440 1920 
L 3494 1920 
L 3494 3034 
z
M 3494 3469 
L 3494 4544 
L 5440 4544 
L 5440 3469 
L 3494 3469 
z
M 3494 1478 
L 5440 1478 
L 5440 365 
L 3494 365 
L 3494 1478 
z
M 3027 4998 
L 3027 -467 
L 3494 -467 
L 3494 -77 
L 5440 -77 
L 5440 -448 
L 5926 -448 
L 5926 4998 
L 3027 4998 
z
M 1370 5376 
L 1370 4006 
L 333 4006 
L 333 3546 
L 1312 3546 
C 1088 2662 634 1651 186 1120 
C 262 1005 384 813 435 685 
C 781 1126 1120 1837 1370 2573 
L 1370 -506 
L 1837 -506 
L 1837 2419 
C 2080 2106 2368 1709 2490 1498 
L 2784 1888 
C 2643 2061 2061 2746 1837 2970 
L 1837 3546 
L 2752 3546 
L 2752 4006 
L 1837 4006 
L 1837 5376 
L 1370 5376 
z
" transform="scale(0.015625)"/>
       <path id="NotoSansCJKjp-Regular-5173" d="M 4378 5370 
C 4237 5005 3968 4493 3750 4173 
L 4141 4013 
C 4371 4314 4646 4781 4877 5197 
L 4378 5370 
z
M 1574 5107 
C 1837 4768 2106 4301 2214 3987 
L 2637 4218 
C 2522 4518 2240 4973 1965 5299 
L 1574 5107 
z
M 1075 2374 
L 1075 1920 
L 2880 1920 
C 2778 1203 2374 410 877 -154 
C 992 -250 1146 -422 1210 -531 
C 2483 0 3034 698 3258 1395 
C 3635 480 4250 -173 5158 -512 
C 5229 -378 5370 -192 5485 -90 
C 4493 218 3853 941 3520 1920 
L 5338 1920 
L 5338 2374 
L 3411 2374 
L 3411 2490 
L 3411 3469 
L 5082 3469 
L 5082 3930 
L 1318 3930 
L 1318 3469 
L 2918 3469 
L 2918 2496 
L 2918 2374 
L 1075 2374 
z
" transform="scale(0.015625)"/>
      </defs>
      <use xlink:href="#NotoSansCJKjp-Regular-975e"/>
      <use xlink:href="#NotoSansCJKjp-Regular-5de5" transform="translate(99.999985 0)"/>
      <use xlink:href="#NotoSansCJKjp-Regular-5177" transform="translate(199.999969 0)"/>
      <use xlink:href="#NotoSansCJKjp-Regular-76f8" transform="translate(299.999954 0)"/>
      <use xlink:href="#NotoSansCJKjp-Regular-5173" transform="translate(399.999939 0)"/>
     </g>
    </g>
    <g id="patch_19">
     <path d="M 882.852612 119.411762 
L 901.052612 119.411762 
L 901.052612 110.311762 
L 882.852612 110.311762 
z
" style="fill: #ff6a4d; stroke: #e5573c; stroke-width: 1.2; stroke-linejoin: miter"/>
    </g>
    <g id="text_36">
     <!-- 工具相关 -->
     <g style="fill: #4b433c" transform="translate(908.852612 119.411762) scale(0.13 -0.13)">
      <use xlink:href="#NotoSansCJKjp-Regular-5de5"/>
      <use xlink:href="#NotoSansCJKjp-Regular-5177" transform="translate(99.999985 0)"/>
      <use xlink:href="#NotoSansCJKjp-Regular-76f8" transform="translate(199.999969 0)"/>
      <use xlink:href="#NotoSansCJKjp-Regular-5173" transform="translate(299.999954 0)"/>
     </g>
    </g>
   </g>
  </g>
  <g id="text_37">
   <!-- 一周搜索行为：总浏览量与工具相关浏览量 -->
   <g style="fill: #1a1713" transform="translate(160.427812 38.324375) scale(0.38 -0.38)">
    <defs>
     <path id="NotoSerifCJKjp-Bold-4e00" d="M 5280 3443 
L 4749 2701 
L 224 2701 
L 288 2496 
L 6022 2496 
C 6131 2496 6208 2528 6227 2598 
C 5875 2931 5280 3443 5280 3443 
z
" transform="scale(0.015625)"/>
     <path id="NotoSerifCJKjp-Bold-5468" d="M 934 4883 
L 934 2970 
C 934 1760 877 486 211 -506 
L 282 -563 
C 1594 378 1677 1805 1677 2976 
L 1677 4698 
L 4845 4698 
L 4845 403 
C 4845 314 4819 269 4704 269 
C 4582 269 4006 307 4006 307 
L 4006 218 
C 4301 166 4429 83 4518 -32 
C 4602 -134 4634 -320 4653 -557 
C 5485 -480 5594 -198 5594 320 
L 5594 4563 
C 5734 4589 5830 4646 5888 4704 
L 5126 5293 
L 4768 4883 
L 1792 4883 
L 934 5184 
L 934 4883 
z
M 2803 4563 
L 2803 3814 
L 1882 3814 
L 1933 3635 
L 2803 3635 
L 2803 2854 
L 1779 2854 
L 1830 2675 
L 4570 2675 
C 4659 2675 4723 2707 4742 2771 
C 4506 2976 4128 3264 4128 3264 
L 3795 2854 
L 3488 2854 
L 3488 3635 
L 4480 3635 
C 4570 3635 4627 3667 4646 3738 
C 4429 3930 4077 4186 4077 4186 
L 3770 3814 
L 3488 3814 
L 3488 4339 
C 3622 4358 3661 4410 3667 4486 
L 2803 4563 
z
M 2042 2125 
L 2042 237 
L 2138 237 
C 2419 237 2720 378 2720 448 
L 2720 819 
L 3654 819 
L 3654 416 
L 3770 416 
C 4000 416 4333 557 4339 608 
L 4339 1850 
C 4448 1875 4525 1926 4563 1965 
L 3910 2458 
L 3597 2125 
L 2746 2125 
L 2042 2406 
L 2042 2125 
z
M 2720 998 
L 2720 1946 
L 3654 1946 
L 3654 998 
L 2720 998 
z
" transform="scale(0.015625)"/>
     <path id="NotoSerifCJKjp-Bold-641c" d="M 3475 5235 
C 3411 5133 3283 4934 3155 4768 
L 2483 5005 
L 2483 3949 
C 2298 4186 1978 4525 1978 4525 
L 1670 3994 
L 1626 3994 
L 1626 5171 
C 1779 5190 1843 5254 1862 5350 
L 941 5440 
L 941 3994 
L 154 3994 
L 205 3814 
L 941 3814 
L 941 2528 
C 589 2432 294 2355 128 2317 
L 422 1478 
C 499 1504 563 1581 582 1664 
L 941 1888 
L 941 314 
C 941 237 915 205 813 205 
C 704 205 198 237 198 237 
L 198 147 
C 454 102 576 32 653 -77 
C 730 -186 755 -352 774 -576 
C 1530 -506 1626 -230 1626 262 
L 1626 2330 
C 1933 2541 2176 2720 2368 2861 
L 2355 2931 
L 1626 2720 
L 1626 3814 
L 2342 3814 
C 2413 3814 2464 3834 2483 3878 
L 2483 2214 
L 2579 2214 
C 2938 2214 3142 2368 3149 2413 
L 3149 2675 
L 3853 2675 
L 3853 2022 
L 3974 2022 
C 4218 2022 4512 2150 4512 2208 
L 4512 2675 
L 5210 2675 
L 5210 2310 
L 5325 2310 
C 5549 2310 5894 2445 5901 2490 
L 5901 4480 
C 6016 4499 6099 4550 6138 4602 
L 5466 5107 
L 5146 4762 
L 4634 4762 
L 4691 4576 
L 5210 4576 
L 5210 3802 
L 4653 3802 
L 4710 3622 
L 5210 3622 
L 5210 2861 
L 4512 2861 
L 4512 5165 
C 4672 5190 4717 5254 4730 5338 
L 3853 5414 
L 3853 4973 
L 3475 5235 
z
M 3853 3648 
L 3853 2861 
L 3149 2861 
L 3149 3622 
L 3744 3622 
C 3789 3622 3827 3629 3853 3648 
z
M 3853 3782 
C 3712 3955 3507 4160 3507 4160 
L 3283 3802 
L 3149 3802 
L 3149 4570 
C 3398 4602 3674 4659 3853 4710 
L 3853 3782 
z
M 4794 1664 
C 4640 1325 4429 1024 4160 755 
C 3738 979 3392 1274 3155 1664 
L 4794 1664 
z
M 2195 1850 
L 2253 1664 
L 3014 1664 
C 3194 1146 3450 742 3776 416 
C 3251 19 2579 -282 1786 -493 
L 1818 -582 
C 2746 -467 3514 -237 4134 109 
C 4557 -205 5069 -422 5658 -589 
C 5747 -218 5952 26 6266 109 
L 6266 186 
C 5728 243 5203 346 4736 506 
C 5088 800 5376 1139 5594 1542 
C 5747 1549 5818 1568 5862 1638 
L 5203 2227 
L 4787 1850 
L 2195 1850 
z
" transform="scale(0.015625)"/>
     <path id="NotoSerifCJKjp-Bold-7d22" d="M 3949 915 
L 3898 858 
C 4384 570 5024 45 5331 -390 
C 6144 -653 6304 864 3949 915 
z
M 1747 998 
C 1446 550 813 -45 192 -403 
L 243 -480 
C 1037 -294 1850 96 2310 474 
C 2458 448 2515 480 2547 538 
L 1747 998 
z
M 1024 4115 
C 954 3635 659 3373 365 3264 
C -205 2579 1286 2221 1203 3565 
L 2355 3565 
C 2298 3379 2189 3098 2074 2835 
C 1875 2906 1606 2944 1267 2925 
L 1216 2874 
C 1542 2682 1946 2317 2093 1984 
C 2560 1798 2816 2355 2368 2688 
C 2656 2848 2925 3021 3085 3142 
C 3226 3117 3309 3181 3334 3245 
L 2458 3565 
L 5114 3565 
C 5050 3309 4941 2982 4851 2758 
L 4909 2714 
C 5254 2880 5683 3168 5933 3411 
C 6074 3418 6138 3430 6189 3488 
L 5478 4154 
L 5082 3744 
L 3578 3744 
L 3578 4435 
L 5722 4435 
C 5818 4435 5888 4467 5907 4538 
C 5619 4787 5139 5152 5139 5152 
L 4710 4621 
L 3578 4621 
L 3578 5107 
C 3750 5126 3802 5190 3814 5280 
L 2842 5363 
L 2842 4621 
L 557 4621 
L 614 4435 
L 2842 4435 
L 2842 3744 
L 1184 3744 
C 1171 3853 1146 3974 1107 4109 
L 1024 4115 
z
M 3738 3290 
C 3488 2886 2931 2221 2426 1754 
C 1613 1741 947 1734 544 1734 
L 890 954 
C 954 966 1030 1011 1075 1088 
L 2822 1318 
L 2822 -563 
L 2957 -563 
C 3334 -563 3565 -442 3565 -416 
L 3565 1421 
C 4064 1491 4499 1562 4877 1626 
C 5018 1453 5139 1274 5210 1107 
C 5946 755 6272 2189 4211 2362 
L 4160 2310 
C 4339 2182 4538 2003 4717 1811 
L 2810 1760 
C 3430 2093 4013 2522 4333 2810 
C 4454 2790 4544 2810 4582 2880 
L 3738 3290 
z
" transform="scale(0.015625)"/>
     <path id="NotoSerifCJKjp-Bold-884c" d="M 1677 5414 
C 1408 4896 819 4096 269 3590 
L 326 3520 
C 1088 3859 1830 4384 2285 4819 
C 2432 4787 2496 4826 2534 4890 
L 1677 5414 
z
M 2816 4787 
L 2867 4602 
L 5837 4602 
C 5920 4602 5990 4634 6010 4704 
C 5747 4947 5306 5293 5306 5293 
L 4922 4787 
L 2816 4787 
z
M 1747 4122 
C 1440 3443 774 2387 109 1702 
L 173 1638 
C 512 1830 838 2061 1146 2304 
L 1146 -576 
L 1286 -576 
C 1574 -576 1888 -435 1901 -378 
L 1901 2688 
C 2016 2707 2074 2752 2099 2810 
L 1830 2906 
C 2048 3123 2246 3334 2406 3526 
C 2560 3501 2624 3539 2656 3603 
L 1747 4122 
z
M 2458 3309 
L 2509 3130 
L 4358 3130 
L 4358 429 
C 4358 339 4314 301 4198 301 
C 4013 301 3059 358 3059 358 
L 3059 275 
C 3494 211 3680 122 3821 13 
C 3949 -96 4006 -288 4026 -525 
C 4979 -461 5126 -109 5126 403 
L 5126 3130 
L 6054 3130 
C 6144 3130 6214 3162 6234 3232 
C 5965 3482 5510 3834 5510 3834 
L 5107 3309 
L 2458 3309 
z
" transform="scale(0.015625)"/>
     <path id="NotoSerifCJKjp-Bold-4e3a" d="M 3347 2726 
L 3290 2694 
C 3514 2310 3718 1779 3712 1299 
C 4416 640 5229 2080 3347 2726 
z
M 954 5197 
L 896 5158 
C 1152 4832 1408 4352 1459 3917 
C 2170 3347 2880 4787 954 5197 
z
M 3520 5126 
C 3686 5152 3744 5216 3757 5306 
L 2682 5414 
C 2682 4813 2682 4198 2618 3590 
L 390 3590 
L 448 3411 
L 2598 3411 
C 2426 2061 1888 730 205 -442 
L 269 -538 
C 2547 506 3200 1946 3411 3411 
L 5082 3411 
C 5030 1677 4928 518 4698 320 
C 4627 262 4570 243 4448 243 
C 4282 243 3770 282 3437 307 
L 3430 224 
C 3770 160 4045 64 4179 -58 
C 4301 -173 4333 -320 4333 -538 
C 4787 -538 5088 -474 5325 -250 
C 5690 102 5811 1165 5869 3270 
C 6022 3290 6099 3341 6150 3398 
L 5440 4019 
L 5011 3590 
L 3430 3590 
C 3494 4109 3507 4627 3520 5126 
z
" transform="scale(0.015625)"/>
     <path id="NotoSerifCJKjp-Bold-ff1a" d="M 3194 3174 
C 2880 3174 2643 3418 2643 3718 
C 2643 4019 2880 4262 3194 4262 
C 3501 4262 3744 4019 3744 3718 
C 3744 3418 3501 3174 3194 3174 
z
M 3194 224 
C 2880 224 2643 467 2643 768 
C 2643 1069 2880 1318 3194 1318 
C 3501 1318 3744 1069 3744 768 
C 3744 467 3501 224 3194 224 
z
" transform="scale(0.015625)"/>
     <path id="NotoSerifCJKjp-Bold-603b" d="M 1658 5395 
L 1606 5350 
C 1869 5088 2157 4659 2234 4282 
C 2931 3814 3494 5178 1658 5395 
z
M 2637 1606 
L 1683 1690 
L 1683 224 
C 1683 -275 1862 -384 2598 -384 
L 3430 -384 
C 4717 -384 5024 -301 5024 19 
C 5024 147 4966 230 4742 314 
L 4723 1056 
L 4653 1056 
C 4525 691 4422 435 4339 333 
C 4294 269 4256 250 4147 243 
C 4038 237 3782 230 3514 230 
L 2714 230 
C 2470 230 2438 262 2438 352 
L 2438 1446 
C 2566 1472 2624 1523 2637 1606 
z
M 1158 1542 
L 1069 1542 
C 1075 1107 800 730 531 589 
C 346 486 218 314 288 102 
C 378 -122 666 -160 883 -26 
C 1210 166 1453 730 1158 1542 
z
M 4755 1619 
L 4691 1574 
C 5011 1229 5331 678 5389 198 
C 6086 -339 6701 1126 4755 1619 
z
M 2950 1933 
L 2893 1894 
C 3142 1619 3392 1184 3430 806 
C 4051 326 4640 1587 2950 1933 
z
M 1907 1990 
L 1907 2176 
L 4506 2176 
L 4506 1837 
L 4634 1837 
C 4883 1837 5248 1971 5254 2016 
L 5254 3795 
C 5376 3821 5453 3872 5485 3917 
L 4781 4448 
L 4448 4083 
L 3802 4083 
C 4192 4371 4576 4742 4845 5011 
C 4986 4992 5062 5037 5094 5114 
L 4064 5459 
C 3955 5062 3757 4493 3571 4083 
L 1958 4083 
L 1158 4397 
L 1158 1754 
L 1274 1754 
C 1581 1754 1907 1920 1907 1990 
z
M 4506 3904 
L 4506 2362 
L 1907 2362 
L 1907 3904 
L 4506 3904 
z
" transform="scale(0.015625)"/>
     <path id="NotoSerifCJKjp-Bold-6d4f" d="M 506 1370 
C 435 1370 230 1370 230 1370 
L 230 1242 
C 365 1235 467 1203 550 1146 
C 698 1043 730 429 614 -230 
C 653 -474 794 -563 941 -563 
C 1235 -563 1427 -352 1446 -38 
C 1459 544 1210 787 1203 1126 
C 1197 1299 1229 1530 1274 1760 
C 1350 2138 1715 3718 1926 4582 
L 1818 4602 
C 794 1754 794 1754 678 1510 
C 614 1370 595 1370 506 1370 
z
M 192 3872 
L 134 3834 
C 307 3616 486 3283 512 2976 
C 1107 2490 1786 3622 192 3872 
z
M 506 5389 
L 448 5357 
C 640 5107 858 4742 909 4397 
C 1549 3898 2221 5126 506 5389 
z
M 2330 5414 
L 2266 5382 
C 2470 5082 2662 4640 2675 4250 
C 3277 3718 3962 4941 2330 5414 
z
M 6221 5338 
L 5312 5427 
L 5312 307 
C 5312 224 5280 186 5165 186 
C 5024 186 4333 237 4333 237 
L 4333 147 
C 4659 90 4806 13 4915 -96 
C 5011 -205 5050 -365 5069 -589 
C 5882 -506 5984 -230 5984 262 
L 5984 5158 
C 6144 5184 6208 5242 6221 5338 
z
M 3706 4461 
L 3360 4000 
L 1798 4000 
L 1850 3814 
L 3149 3814 
C 3123 3386 3066 2963 2976 2547 
C 2726 2829 2413 3117 2035 3398 
L 1946 3354 
C 2234 2912 2534 2381 2778 1824 
C 2509 1024 2093 282 1478 -333 
L 1542 -397 
C 2195 32 2682 563 3034 1165 
C 3142 845 3219 525 3251 230 
C 3834 -294 4256 672 3418 1971 
C 3642 2547 3782 3168 3866 3814 
L 4160 3814 
C 4211 3814 4256 3827 4282 3853 
L 4282 896 
L 4403 896 
C 4653 896 4934 1030 4934 1094 
L 4934 4634 
C 5101 4653 5158 4717 5171 4806 
L 4282 4896 
L 4282 3968 
C 4051 4192 3706 4461 3706 4461 
z
" transform="scale(0.015625)"/>
     <path id="NotoSerifCJKjp-Bold-89c8" d="M 2810 5370 
L 1888 5453 
L 1888 2918 
L 2010 2918 
C 2278 2918 2573 3027 2573 3085 
L 2573 5190 
C 2752 5222 2797 5280 2810 5370 
z
M 1587 5011 
L 678 5094 
L 678 3014 
L 794 3014 
C 1056 3014 1350 3130 1350 3174 
L 1350 4838 
C 1523 4858 1574 4922 1587 5011 
z
M 4045 4115 
L 3994 4070 
C 4294 3846 4666 3437 4800 3078 
C 5530 2739 5894 4128 4045 4115 
z
M 1869 870 
L 1869 2560 
L 4352 2560 
L 4352 742 
L 4474 742 
C 4710 742 5069 877 5075 915 
L 5075 2458 
C 5197 2483 5274 2534 5312 2579 
L 4621 3098 
L 4288 2739 
L 1914 2739 
L 1152 3046 
L 1152 640 
L 1248 640 
C 1549 640 1862 800 1869 870 
z
M 3603 2259 
L 2669 2336 
C 2643 1139 2643 218 224 -493 
L 269 -595 
C 2112 -237 2835 275 3142 890 
L 3142 154 
C 3142 -301 3283 -416 3949 -416 
L 4736 -416 
C 5926 -416 6202 -294 6202 -6 
C 6202 115 6157 192 5958 262 
L 5939 1018 
L 5862 1018 
C 5754 659 5664 390 5594 282 
C 5555 218 5517 205 5427 198 
C 5325 192 5082 186 4800 186 
L 4058 186 
C 3814 186 3789 211 3789 301 
L 3789 1376 
C 3917 1395 3981 1446 3987 1530 
L 3341 1587 
C 3366 1754 3379 1920 3392 2093 
C 3533 2112 3590 2176 3603 2259 
z
M 4384 5184 
L 3373 5453 
C 3245 4557 2963 3629 2650 3014 
L 2726 2963 
C 3162 3302 3533 3770 3827 4339 
L 6067 4339 
C 6157 4339 6227 4371 6246 4442 
C 5965 4698 5498 5075 5498 5075 
L 5082 4518 
L 3917 4518 
C 3994 4685 4070 4864 4134 5050 
C 4282 5043 4358 5101 4384 5184 
z
" transform="scale(0.015625)"/>
     <path id="NotoSerifCJKjp-Bold-91cf" d="M 314 3130 
L 371 2950 
L 5926 2950 
C 6016 2950 6080 2982 6099 3053 
C 5837 3283 5408 3616 5408 3616 
L 5030 3130 
L 314 3130 
z
M 4346 4218 
L 4346 3738 
L 2029 3738 
L 2029 4218 
L 4346 4218 
z
M 4346 4397 
L 2029 4397 
L 2029 4851 
L 4346 4851 
L 4346 4397 
z
M 1286 5030 
L 1286 3245 
L 1395 3245 
C 1696 3245 2029 3405 2029 3469 
L 2029 3552 
L 4346 3552 
L 4346 3354 
L 4474 3354 
C 4717 3354 5094 3482 5101 3520 
L 5101 4730 
C 5229 4755 5318 4813 5357 4864 
L 4621 5414 
L 4282 5030 
L 2074 5030 
L 1286 5344 
L 1286 5030 
z
M 4410 1670 
L 4410 1171 
L 3539 1171 
L 3539 1670 
L 4410 1670 
z
M 4410 1856 
L 3539 1856 
L 3539 2349 
L 4410 2349 
L 4410 1856 
z
M 1965 1670 
L 2810 1670 
L 2810 1171 
L 1965 1171 
L 1965 1670 
z
M 1965 1856 
L 1965 2349 
L 2810 2349 
L 2810 1856 
L 1965 1856 
z
M 4410 986 
L 4410 813 
L 4531 813 
C 4653 813 4813 845 4941 883 
L 4634 486 
L 3539 486 
L 3539 986 
L 4410 986 
z
M 755 486 
L 806 301 
L 2810 301 
L 2810 -250 
L 262 -250 
L 314 -429 
L 5997 -429 
C 6093 -429 6163 -397 6182 -326 
C 5901 -77 5440 275 5440 275 
L 5037 -250 
L 3539 -250 
L 3539 301 
L 5542 301 
C 5632 301 5696 333 5715 403 
C 5517 582 5216 826 5082 928 
C 5133 947 5165 966 5171 979 
L 5171 2208 
C 5312 2240 5408 2304 5446 2355 
L 4691 2925 
L 4339 2534 
L 2010 2534 
L 1210 2848 
L 1210 646 
L 1312 646 
C 1619 646 1965 806 1965 877 
L 1965 986 
L 2810 986 
L 2810 486 
L 755 486 
z
" transform="scale(0.015625)"/>
     <path id="NotoSerifCJKjp-Bold-4e0e" d="M 1824 5440 
C 1760 4762 1421 3117 1184 2362 
C 1530 2266 1856 2285 2022 2400 
L 2125 2835 
L 4045 2835 
C 4019 2451 3987 2093 3949 1773 
L 250 1773 
L 301 1594 
L 3930 1594 
C 3840 915 3725 442 3578 326 
C 3501 269 3437 250 3302 250 
C 3123 250 2464 294 2029 326 
L 2029 250 
C 2406 179 2765 70 2918 -58 
C 3066 -173 3110 -346 3104 -563 
C 3622 -563 3898 -486 4141 -282 
C 4429 -38 4608 621 4723 1594 
L 6054 1594 
C 6150 1594 6221 1626 6240 1696 
C 5952 1952 5472 2317 5472 2317 
L 5043 1773 
L 4749 1773 
C 4781 2061 4806 2374 4826 2707 
C 4966 2726 5056 2765 5107 2822 
L 4403 3430 
L 3987 3021 
L 2163 3021 
L 2374 4045 
L 5331 4045 
C 5427 4045 5491 4077 5510 4147 
C 5210 4403 4723 4768 4723 4768 
L 4288 4230 
L 2413 4230 
L 2579 5152 
C 2752 5171 2816 5235 2829 5325 
L 1824 5440 
z
" transform="scale(0.015625)"/>
     <path id="NotoSerifCJKjp-Bold-5de5" d="M 205 134 
L 256 -51 
L 6029 -51 
C 6131 -51 6195 -19 6214 51 
C 5901 326 5376 730 5376 730 
L 4915 134 
L 3597 134 
L 3597 4243 
L 5638 4243 
C 5734 4243 5805 4275 5824 4346 
C 5510 4621 4992 5018 4992 5018 
L 4531 4429 
L 627 4429 
L 678 4243 
L 2778 4243 
L 2778 134 
L 205 134 
z
" transform="scale(0.015625)"/>
     <path id="NotoSerifCJKjp-Bold-5177" d="M 198 1216 
L 250 1037 
L 6022 1037 
C 6118 1037 6189 1069 6208 1133 
C 5907 1389 5414 1754 5414 1754 
L 4979 1216 
L 198 1216 
z
M 3744 774 
L 3706 691 
C 4442 352 4947 -90 5197 -403 
C 5811 -979 7130 384 3744 774 
z
M 2125 934 
C 1766 467 979 -147 230 -499 
L 262 -576 
C 1190 -390 2118 -26 2662 352 
C 2874 320 2982 352 3034 429 
L 2125 934 
z
M 4288 4762 
L 4288 4019 
L 2202 4019 
L 2202 4762 
L 4288 4762 
z
M 1446 4947 
L 1446 1427 
L 1562 1427 
C 1882 1427 2202 1600 2202 1683 
L 2202 1882 
L 4288 1882 
L 4288 1536 
L 4416 1536 
C 4672 1536 5043 1683 5050 1741 
L 5050 4640 
C 5184 4666 5267 4723 5312 4774 
L 4576 5338 
L 4224 4947 
L 2240 4947 
L 1446 5267 
L 1446 4947 
z
M 2202 3840 
L 4288 3840 
L 4288 3066 
L 2202 3066 
L 2202 3840 
z
M 2202 2886 
L 4288 2886 
L 4288 2067 
L 2202 2067 
L 2202 2886 
z
" transform="scale(0.015625)"/>
     <path id="NotoSerifCJKjp-Bold-76f8" d="M 3712 3200 
L 5126 3200 
L 5126 1869 
L 3712 1869 
L 3712 3200 
z
M 3712 3379 
L 3712 4698 
L 5126 4698 
L 5126 3379 
L 3712 3379 
z
M 3712 1690 
L 5126 1690 
L 5126 307 
L 3712 307 
L 3712 1690 
z
M 2976 4870 
L 2976 -531 
L 3098 -531 
C 3430 -531 3712 -346 3712 -250 
L 3712 122 
L 5126 122 
L 5126 -499 
L 5248 -499 
C 5523 -499 5875 -320 5882 -262 
L 5882 4563 
C 6016 4595 6099 4646 6144 4704 
L 5427 5280 
L 5062 4870 
L 3744 4870 
L 2976 5197 
L 2976 4870 
z
M 1178 5421 
L 1178 3846 
L 262 3846 
L 314 3667 
L 1088 3667 
C 915 2726 589 1715 115 992 
L 198 922 
C 582 1261 909 1651 1178 2086 
L 1178 -576 
L 1325 -576 
C 1600 -576 1907 -422 1907 -358 
L 1907 2957 
C 2080 2682 2246 2310 2285 1997 
C 2829 1530 3443 2611 1907 3104 
L 1907 3667 
L 2733 3667 
C 2822 3667 2886 3699 2906 3770 
C 2701 4000 2336 4352 2336 4352 
L 2010 3846 
L 1907 3846 
L 1907 5139 
C 2080 5165 2125 5229 2138 5325 
L 1178 5421 
z
" transform="scale(0.015625)"/>
     <path id="NotoSerifCJKjp-Bold-5173" d="M 1709 5357 
L 1651 5318 
C 1888 4986 2112 4499 2150 4058 
C 2848 3482 3558 4896 1709 5357 
z
M 3898 5427 
C 3802 4960 3603 4288 3411 3814 
L 1146 3814 
L 1197 3629 
L 2778 3629 
L 2778 2586 
L 2765 2227 
L 915 2227 
L 966 2042 
L 2752 2042 
C 2656 1126 2246 224 890 -518 
L 928 -582 
C 2925 13 3430 1062 3539 2042 
L 3558 2042 
C 3802 742 4250 -90 5133 -608 
C 5222 -218 5453 38 5741 115 
L 5754 186 
C 4832 448 4058 1114 3680 2042 
L 5536 2042 
C 5632 2042 5702 2074 5715 2144 
C 5427 2394 4947 2752 4947 2752 
L 4518 2227 
L 3558 2227 
L 3571 2592 
L 3571 3629 
L 5318 3629 
C 5414 3629 5478 3661 5498 3731 
C 5216 3974 4755 4320 4755 4320 
L 4346 3814 
L 3552 3814 
C 3994 4179 4442 4653 4710 4998 
C 4851 4992 4928 5050 4954 5126 
L 3898 5427 
z
" transform="scale(0.015625)"/>
    </defs>
    <use xlink:href="#NotoSerifCJKjp-Bold-4e00"/>
    <use xlink:href="#NotoSerifCJKjp-Bold-5468" transform="translate(99.999985 0)"/>
    <use xlink:href="#NotoSerifCJKjp-Bold-641c" transform="translate(199.999969 0)"/>
    <use xlink:href="#NotoSerifCJKjp-Bold-7d22" transform="translate(299.999954 0)"/>
    <use xlink:href="#NotoSerifCJKjp-Bold-884c" transform="translate(399.999939 0)"/>
    <use xlink:href="#NotoSerifCJKjp-Bold-4e3a" transform="translate(499.999924 0)"/>
    <use xlink:href="#NotoSerifCJKjp-Bold-ff1a" transform="translate(599.999908 0)"/>
    <use xlink:href="#NotoSerifCJKjp-Bold-603b" transform="translate(699.999893 0)"/>
    <use xlink:href="#NotoSerifCJKjp-Bold-6d4f" transform="translate(799.999878 0)"/>
    <use xlink:href="#NotoSerifCJKjp-Bold-89c8" transform="translate(899.999863 0)"/>
    <use xlink:href="#NotoSerifCJKjp-Bold-91cf" transform="translate(999.999847 0)"/>
    <use xlink:href="#NotoSerifCJKjp-Bold-4e0e" transform="translate(1099.999832 0)"/>
    <use xlink:href="#NotoSerifCJKjp-Bold-5de5" transform="translate(1199.999817 0)"/>
    <use xlink:href="#NotoSerifCJKjp-Bold-5177" transform="translate(1299.999802 0)"/>
    <use xlink:href="#NotoSerifCJKjp-Bold-76f8" transform="translate(1399.999786 0)"/>
    <use xlink:href="#NotoSerifCJKjp-Bold-5173" transform="translate(1499.999771 0)"/>
    <use xlink:href="#NotoSerifCJKjp-Bold-6d4f" transform="translate(1599.999756 0)"/>
    <use xlink:href="#NotoSerifCJKjp-Bold-89c8" transform="translate(1699.999741 0)"/>
    <use xlink:href="#NotoSerifCJKjp-Bold-91cf" transform="translate(1799.999725 0)"/>
   </g>
  </g>
 </g>
 <defs>
  <clipPath id="p37293da700">
   <rect x="37.587813" y="63.324375" width="967.68" height="427.68"/>
  </clipPath>
 </defs>
</svg>
